<svg xmlns="http://www.w3.org/2000/svg" width="273.765" height="157.578" viewBox="0 0 273.765 157.578"><g transform="translate(-32.813 -52.33)"><g transform="translate(44.024 56.187)"><path d="M675.937,178.31a5.435,5.435,0,0,1,1.39,4.013,9.533,9.533,0,0,1-1.294,4.129,16.868,16.868,0,0,1-6.333,5.89c-1.4-2.8-.535-6.321,0-8.078.867-2.8,4.125-7.28,6.221-5.954" transform="translate(-426.134 -131.717)" fill="#ebebeb"/><path d="M672.79,221.4a4.624,4.624,0,0,1,3.055-3.5,6.141,6.141,0,0,1,4.728.4,2.565,2.565,0,0,1,1.5,1.6,2,2,0,0,1-.735,1.865,3.993,3.993,0,0,1-1.925.8c-2.4.4-4.748.367-6.621-1.15" transform="translate(-428.445 -155.466)" fill="#ebebeb"/><path d="M657.63,232.011a3.392,3.392,0,0,1,.3-.5l.854-1.326a16.439,16.439,0,0,1,3.37-3.993,9.9,9.9,0,0,1,4.732-2.148,6.633,6.633,0,0,1,1.6-.04,3.629,3.629,0,0,1,.427.06c.1,0,.148.028.148.036a10.617,10.617,0,0,0-2.14.088,10.259,10.259,0,0,0-4.64,2.192,17.11,17.11,0,0,0-3.374,3.9c-.379.547-.687.99-.91,1.29A2.87,2.87,0,0,1,657.63,232.011Z" transform="translate(-419.339 -159.291)" fill="#e0e0e0"/><path d="M666.686,187.8a1.559,1.559,0,0,1-.072.244l-.232.683c-.208.595-.519,1.446-.91,2.5-.8,2.1-1.913,4.987-3.227,8.146s-2.568,5.99-3.506,8.034c-.467,1.018-.855,1.837-1.126,2.4-.132.264-.24.479-.319.647a1.341,1.341,0,0,1-.124.22,1.113,1.113,0,0,1,.084-.236c.076-.172.168-.4.287-.667l1.066-2.428c.9-2.052,2.136-4.892,3.45-8.05s2.46-6.034,3.278-8.122l.97-2.472c.112-.272.2-.5.272-.667A1.114,1.114,0,0,1,666.686,187.8Z" transform="translate(-419.063 -137.562)" fill="#e0e0e0"/><path d="M652.978,211.189a10.818,10.818,0,0,0-2.452-9.584c-.583-.651-1.442-1.266-2.264-.97s-1.086,1.322-1.1,2.2a9.248,9.248,0,0,0,5.678,8.541" transform="translate(-413.05 -145.226)" fill="#ebebeb"/><path d="M653.994,209.71a2.43,2.43,0,0,1,.379.4,4.489,4.489,0,0,1,.4.491c.148.2.331.419.5.691a9.849,9.849,0,0,1,.523.886,10.22,10.22,0,0,1,.507,1.066,11.924,11.924,0,0,1,.727,2.612,11.765,11.765,0,0,1,.072,2.707,9.858,9.858,0,0,1-.18,1.17,8.415,8.415,0,0,1-.26,1,7.888,7.888,0,0,1-.284.8,4.637,4.637,0,0,1-.264.583,2.737,2.737,0,0,1-.26.479c-.044,0,.328-.707.671-1.9a9.281,9.281,0,0,0,.228-.986,10.727,10.727,0,0,0,.16-1.154,12.108,12.108,0,0,0-.084-2.663,12.667,12.667,0,0,0-.7-2.568c-.16-.379-.307-.739-.483-1.062a9.9,9.9,0,0,0-.5-.886C654.473,210.3,653.938,209.738,653.994,209.71Z" transform="translate(-417.153 -150.723)" fill="#e0e0e0"/><path d="M62.553,116.042s-3.674,1.2-.112,9.065a100.552,100.552,0,0,0,6.106,11.812s.611,1.817-.906,2.025-4.792-.475-5.559,1.334c-.8,1.873.519,3.738,3.254,5.451s8.593,5.678,9.12,6.038,1.014,1.2,0,1.517-8.494.735-8.078,4.273,8.825,7.068,9.727,7.467,1.114.8,1.014,1.31-2.628.4-4.752.623-4.548.823-4.137,2.843,5.279,6.457,17.522,8.238l5.726.455,3.346-4.7c6.557-10.49,6.317-17.071,5.043-18.692s-3.314-.168-4.844,1.318-3.1,3.474-3.546,3.223-.627-.667-.347-1.621,3.039-9.64.607-12.243-7.587,2.827-8.482,3.4-1.218-.359-1.154-.986.823-7.667,1.286-10.861-.116-5.391-2.053-5.99c-1.869-.591-3.474,2.356-4.612,3.378S74.6,134.1,74.6,134.1a100.262,100.262,0,0,0-5.067-12.291C65.824,114,62.473,116.1,62.473,116.1" transform="translate(-60.887 -94.339)" fill="#ebebeb"/><path d="M99,190.751c-2.7-5.75-7.324-16.045-11.341-24.862s-7.659-16.8-10.33-22.554l-3.167-6.82-.859-1.853-.22-.487A1.6,1.6,0,0,1,73,134s.032.052.088.16l.236.479c.2.427.5,1.046.89,1.841.771,1.6,1.869,3.917,3.219,6.788,2.7,5.746,6.361,13.717,10.382,22.534s8.625,19.135,11.3,24.9" transform="translate(-68.163 -105.245)" fill="#e0e0e0"/><path d="M75.3,179.88a2.2,2.2,0,0,1,.4.132c.248.092.607.24,1.046.423.878.371,2.08.914,3.4,1.537l3.362,1.6,1.022.479a2.148,2.148,0,0,1,.367.192,1.673,1.673,0,0,1-.4-.128c-.252-.092-.607-.24-1.046-.427-.879-.4-2.072-.938-3.386-1.561l-3.374-1.6-1.022-.475a1.8,1.8,0,0,1-.367-.172Z" transform="translate(-69.545 -132.804)" fill="#e0e0e0"/><path d="M100.338,173.1c-.044,0,.966-2.548,2.256-5.642s2.4-5.59,2.42-5.59-.962,2.548-2.256,5.646S100.386,173.1,100.338,173.1Z" transform="translate(-84.584 -121.986)" fill="#e0e0e0"/><path d="M114.26,211.551a2,2,0,0,1,.252-.339c.192-.244.435-.543.723-.9.607-.759,1.446-1.813,2.328-3.007s1.645-2.3,2.192-3.1l.647-.954a2.3,2.3,0,0,1,.252-.339,1.574,1.574,0,0,1-.2.375c-.136.24-.339.575-.6.986-.519.827-1.266,1.949-2.156,3.143s-1.737,2.24-2.372,2.979c-.319.367-.579.663-.767.863A1.737,1.737,0,0,1,114.26,211.551Z" transform="translate(-92.947 -146.638)" fill="#e0e0e0"/><path d="M89.6,220.435a1.6,1.6,0,0,1,.4.024l1.058.132c.89.124,2.12.3,3.478.511s2.584.4,3.47.559l1.05.192a1.6,1.6,0,0,1,.379.092,1.6,1.6,0,0,1-.4-.024l-1.054-.132c-.894-.124-2.124-.3-3.482-.511s-2.584-.4-3.47-.559l-1.046-.192a1.772,1.772,0,0,1-.383-.092Z" transform="translate(-78.134 -157.163)" fill="#e0e0e0"/><path d="M98,252.549a2.582,2.582,0,0,1,.5.036l1.358.168c1.142.148,2.719.363,4.46.615s3.318.487,4.456.671l1.35.22a3.14,3.14,0,0,1,.491.108,2.619,2.619,0,0,1-.5-.036l-1.354-.168c-1.142-.148-2.723-.367-4.464-.619s-3.318-.487-4.456-.667l-1.346-.224a2.687,2.687,0,0,1-.491-.1Z" transform="translate(-83.18 -176.455)" fill="#e0e0e0"/><path d="M128.87,239.967a3.046,3.046,0,0,1,.307-.443c.224-.3.519-.695.874-1.17.739-.99,1.753-2.36,2.831-3.905s2.021-2.967,2.691-3.993l.8-1.226a3.31,3.31,0,0,1,.307-.439,3.069,3.069,0,0,1-.252.475c-.172.3-.427.731-.751,1.254-.647,1.054-1.573,2.492-2.655,4.037s-2.108,2.911-2.875,3.881c-.4.483-.7.875-.922,1.138A2.734,2.734,0,0,1,128.87,239.967Z" transform="translate(-101.723 -162.184)" fill="#e0e0e0"/><path d="M338.946,130.937c-10.231-5.147-14.08-16.9-15.278-27.781-.2-1.817-.675-3.694-.044-5.4s2.48-3.087,4.209-2.556c1.434.435,2.244,1.913,3.195,3.095a10.666,10.666,0,0,0,4.828,3.438,4.073,4.073,0,0,0,3.762-.2c1.434-1.086,1.306-3.266,1.034-5.063q-.759-5.027-1.517-10.047A16.951,16.951,0,0,1,338.907,81a5.627,5.627,0,0,1,2.959-4.277,3.418,3.418,0,0,1,4.516,1.661,17.241,17.241,0,0,1,.375,2.232,1.917,1.917,0,0,0,1.362,1.621c.739.108,1.4-.507,1.857-1.114a24.074,24.074,0,0,0,3.358-7.1,33.636,33.636,0,0,1,3.035-7.268,9.832,9.832,0,0,1,6.054-4.648c2.552-.519,5.531.675,6.545,3.111s-.088,5.227-1.4,7.511a40.451,40.451,0,0,1-7.188,9.184,3.438,3.438,0,0,0-1.2,1.705c-.216,1.254,1.09,2.28,2.332,2.5a20.929,20.929,0,0,0,4.265-.136c1.426-.04,3.035.363,3.758,1.6,1,1.733-.256,3.881-1.6,5.363a34.7,34.7,0,0,1-9.324,7.343,11.571,11.571,0,0,0-3.518,2.4,3.362,3.362,0,0,0-.515,3.965,3.428,3.428,0,0,0,3.889.882,24.6,24.6,0,0,0,3.73-2.076c2.336-1.29,5.551-1.6,7.443.323a5.761,5.761,0,0,1,1.334,4.948,13.191,13.191,0,0,1-2.084,4.836,34.935,34.935,0,0,1-13.265,12.511c-5.447,2.815-10.678,4.121-16.676,2.863" transform="translate(-218.519 -61.99)" fill="#f5f5f5"/><path d="M367,125.453a163.488,163.488,0,0,1,3.889-18.273l1.27-4.74c.419-1.553.835-3.095,1.334-4.576a81.064,81.064,0,0,1,3.358-8.354c1.2-2.6,2.424-5.031,3.594-7.3s2.308-4.349,3.418-6.205a64.553,64.553,0,0,1,5.9-8.362c.771-.93,1.394-1.633,1.821-2.1l.487-.531a1.383,1.383,0,0,1,.176-.176,1.1,1.1,0,0,1-.148.2l-.467.555c-.4.483-1.014,1.2-1.769,2.14a68.279,68.279,0,0,0-5.8,8.386c-1.1,1.861-2.216,3.949-3.374,6.213s-2.376,4.7-3.562,7.3a82,82,0,0,0-3.338,8.346c-.5,1.477-.906,3-1.326,4.56s-.835,3.139-1.262,4.736a166.519,166.519,0,0,0-3.909,18.233" transform="translate(-244.763 -63.702)" fill="#e0e0e0"/><path d="M375.237,118.293a3.639,3.639,0,0,1-.288-.743c-.164-.483-.4-1.2-.639-2.064-.511-1.757-1.138-4.2-1.817-6.9s-1.342-5.131-1.877-6.872c-.268-.871-.491-1.573-.651-2.056a3.775,3.775,0,0,1-.216-.767,3.45,3.45,0,0,1,.335.719c.2.471.455,1.166.755,2.033.595,1.725,1.294,4.157,1.977,6.86l1.721,6.92q.315,1.246.539,2.092A3.484,3.484,0,0,1,375.237,118.293Z" transform="translate(-246.415 -84.155)" fill="#e0e0e0"/><path d="M405.984,128.29a5,5,0,0,1-.906.244c-.583.14-1.434.335-2.472.611-2.084.535-4.94,1.374-8.046,2.436s-5.878,2.16-7.859,3c-.994.4-1.789.775-2.34,1.018a4.9,4.9,0,0,1-.871.351,4.961,4.961,0,0,1,.8-.471c.535-.28,1.318-.671,2.3-1.118,1.965-.9,4.732-2.029,7.847-3.1a81.668,81.668,0,0,1,8.1-2.348c1.05-.248,1.909-.4,2.5-.507A4.923,4.923,0,0,1,405.984,128.29Z" transform="translate(-254.669 -101.815)" fill="#e0e0e0"/><path d="M343.639,173.629a1.2,1.2,0,0,1-.2-.256c-.14-.212-.307-.471-.515-.8-.447-.679-1.066-1.677-1.813-2.919-1.5-2.488-3.458-5.99-5.571-9.883s-4.041-7.391-5.487-9.887l-1.717-2.971-.463-.8a1.268,1.268,0,0,1-.144-.3,1.154,1.154,0,0,1,.2.26l.515.8c.447.679,1.066,1.677,1.813,2.923,1.5,2.488,3.462,5.99,5.59,9.883s4.037,7.4,5.483,9.919l1.717,2.975c.188.323.339.595.463.8A1.229,1.229,0,0,1,343.639,173.629Z" transform="translate(-221.174 -112.345)" fill="#e0e0e0"/><path d="M396.842,179.55a1.322,1.322,0,0,1-.287.168l-.847.411-3.135,1.541c-2.647,1.306-6.285,3.147-10.3,5.191s-7.675,3.849-10.35,5.1c-1.338.623-2.424,1.118-3.195,1.446l-.875.367a1.078,1.078,0,0,1-.315.108,1.474,1.474,0,0,1,.288-.168l.847-.427,3.139-1.541c2.647-1.3,6.281-3.143,10.3-5.191s7.671-3.849,10.346-5.1c1.338-.623,2.424-1.118,3.195-1.446l.875-.367A1.078,1.078,0,0,1,396.842,179.55Z" transform="translate(-245.088 -132.606)" fill="#e0e0e0"/><path d="M540.394,98.832c0-6.517-6.844-10.642-13.824-7.379a7.951,7.951,0,0,0-3.674,3.522c-1.753,3.4-.978,7.284.615,10.51l5.431,13.765a2.34,2.34,0,0,0,4.361,0l5.327-13.84C540.47,101.18,540.394,98.832,540.394,98.832Zm-6.557,5.67c-4.692,2.727-9.448-2.316-6.876-7.292a3.9,3.9,0,0,1,1.493-1.6c4.692-2.727,9.444,2.316,6.872,7.292A3.9,3.9,0,0,1,533.837,104.5Z" transform="translate(-337.807 -79.002)" fill="#f5f5f5"/></g><g transform="translate(35.707 208.659)"><path d="M307.58,443.924c0,.06-59.9.1-133.748.1s-133.772-.044-133.772-.1,59.874-.1,133.772-.1S307.58,443.868,307.58,443.924Z" transform="translate(-40.06 -443.82)" fill="#263238"/></g><g transform="translate(84.568 52.33)"><path d="M227.006,208.763l-53.077-.244a11.58,11.58,0,0,1-11.508-11.612l.563-133.065A11.58,11.58,0,0,1,174.6,52.33l53.077.244a11.58,11.58,0,0,1,11.508,11.6l-.563,133.065a11.58,11.58,0,0,1-11.616,11.52Z" transform="translate(-162.42 -52.33)" fill="#455a64"/><path d="M232.9,64.073l-10.29-.048a2.56,2.56,0,0,0-2.512,2.6v1.869a2.552,2.552,0,0,1-2.516,2.592l-20.062-.092a2.564,2.564,0,0,1-2.488-2.624V66.5a2.56,2.56,0,0,0-2.48-2.6H188.94l-9-.068a8.1,8.1,0,0,0-8.138,8.054l-.547,129.882a8.1,8.1,0,0,0,8.058,8.134l52.974.244a8.1,8.1,0,0,0,8.134-8.062L240.963,72.2A8.094,8.094,0,0,0,232.9,64.073Z" transform="translate(-167.724 -59.238)" fill="#fafafa"/><path d="M172.46,123.05h8.681l7.747,7.751-8.054,8.054-8.282-8.286Z" transform="translate(-168.451 -94.81)" fill="#ebebeb"/><path d="M211.483,127.4l-4.353-4.349h9.791Z" transform="translate(-189.276 -94.81)" fill="#ebebeb"/><path d="M227.56,131.373l7.623-7.623h26.635s4.077,18.209-11.98,29.9Z" transform="translate(-201.548 -95.231)" fill="#ebebeb"/><path d="M207.124,148.92l-8.154,8.158,22.566,22.566,8.154-8.43Z" transform="translate(-184.375 -110.35)" fill="#ebebeb"/><path d="M172.21,165.414l5.111-5.3L172.31,155.1Z" transform="translate(-168.301 -114.062)" fill="#ebebeb"/><path d="M180.861,175.48l-7.851,7.851V194.24l16.208,16.584,13.733-12.778Z" transform="translate(-168.781 -126.304)" fill="#ebebeb"/><path d="M291,155.939s16.819-12.331,11.381-32.189h10.458l-.128,56.048Z" transform="translate(-239.656 -95.231)" fill="#ebebeb"/><path d="M270.85,212.46l-8.13,8.49,24.934,24.937,7.627-8.082Z" transform="translate(-222.668 -148.517)" fill="#ebebeb"/><path d="M234.982,239.54,222.2,252.23l25.564,25.385,12.758-12.335Z" transform="translate(-198.329 -164.783)" fill="#ebebeb"/><path d="M237.43,368.3l19.543-20.253L275.561,367Z" transform="translate(-207.477 -229.963)" fill="#ebebeb"/><path d="M294,311.166,314.365,291c0,.894-.176,41.813-.176,41.813Z" transform="translate(-241.458 -195.694)" fill="#ebebeb"/><path d="M217.609,313.14l11.544,11.544L206.36,348.2l-10.53-12.63Z" transform="translate(-182.489 -208.994)" fill="#ebebeb"/><path d="M172.26,288.718c1.09-.108,29.007-26.251,29.007-26.251L172.26,232.41Z" transform="translate(-168.331 -160.501)" fill="#ebebeb"/><path d="M171.25,379.378l6.721-5.958,9.308,10.993H171.25v-4.2" transform="translate(-167.724 -245.203)" fill="#ebebeb"/><path d="M190,97.788a16.713,16.713,0,0,1-2-1.733h0V95.9h0l.028-.024.048-.044.1-.092.192-.18.363-.335.627-.559a3.059,3.059,0,0,1,.639-.5,2.8,2.8,0,0,1-.511.583l-.6.591-.355.343-.192.184-.1.092-.052.044-.024.024h0v-.152h0A16.954,16.954,0,0,1,190,97.788Z" transform="translate(-177.785 -77.462)" fill="#263238"/><path d="M329.941,94.951a.435.435,0,1,1-.431-.431.435.435,0,0,1,.431.431Z" transform="translate(-262.523 -77.673)" fill="#263238"/><path d="M329.823,98.381a.435.435,0,1,1-.615,0A.435.435,0,0,1,329.823,98.381Z" transform="translate(-262.529 -79.917)" fill="#263238"/><path d="M329.944,102.353a.435.435,0,1,1-.2-.411A.435.435,0,0,1,329.944,102.353Z" transform="translate(-262.526 -82.091)" fill="#263238"/><rect width="18.68" height="1.557" transform="translate(30.025 19.048)" fill="#263238"/><path d="M248.22,155.689c0-7.276-7.643-11.884-15.438-8.238a8.849,8.849,0,0,0-4.105,3.933c-1.961,3.8-1.094,8.134.683,11.736l6.07,15.378a2.616,2.616,0,0,0,4.872,0l5.946-15.458C248.308,158.328,248.22,155.689,248.22,155.689Zm-7.308,6.349c-5.239,3.047-10.55-2.584-7.679-8.142a4.392,4.392,0,0,1,1.665-1.765c5.243-3.047,10.554,2.584,7.679,8.142A4.356,4.356,0,0,1,240.913,162.038Z" transform="translate(-201.548 -108.701)" fill="#21b586"/></g><g transform="translate(54.644 111.24)"><rect width="221.55" height="32.509" transform="translate(13.883 43.631)" fill="#21b586"/><g transform="translate(13.883 43.631)" opacity="0.5"><rect width="221.55" height="32.509"/></g><circle cx="21.364" cy="21.364" r="21.364" transform="translate(20.906 56.037) rotate(-3.85)" fill="#263238"/><path d="M143.317,389.07v.056a21.366,21.366,0,0,0,42.727.619v-.056Z" transform="translate(-121.02 -313.514)" fill="#263238"/><path d="M159.247,367.212a15,15,0,1,0,15.21-14.775A15,15,0,0,0,159.247,367.212Z" transform="translate(-130.589 -291.508)" fill="#fafafa"/><path d="M174.46,352.428A14.994,14.994,0,0,0,159.25,367.2l29.993.435a15,15,0,0,0-14.783-15.21Z" transform="translate(-130.592 -291.502)" fill="#e0e0e0"/><path d="M173.928,376.109a9.136,9.136,0,1,0,9.264-9,9.136,9.136,0,0,0-9.264,9Z" transform="translate(-139.408 -300.321)" fill="#263238"/><circle cx="21.364" cy="21.364" r="21.364" transform="matrix(0.998, -0.058, 0.058, 0.998, 184.459, 55.808)" fill="#263238"/><path d="M552.417,389.07v.056a21.366,21.366,0,1,0,42.727.619v-.056Z" transform="translate(-366.758 -313.514)" fill="#263238"/><path d="M568.347,367.212a15,15,0,1,0,15.21-14.775,15,15,0,0,0-15.21,14.775Z" transform="translate(-376.328 -291.508)" fill="#fafafa"/><path d="M583.56,352.428A14.994,14.994,0,0,0,568.35,367.2l29.993.435a15,15,0,0,0-14.783-15.21Z" transform="translate(-376.331 -291.502)" fill="#e0e0e0"/><path d="M583,376.109a9.136,9.136,0,1,0,9.264-9A9.136,9.136,0,0,0,583,376.109Z" transform="translate(-385.129 -300.321)" fill="#263238"/><path d="M159.139,225.2s-31.458,2.32-43.126,4.936c-8.218,1.841-24.063,5.023-23.871,14.99l1.258,7.148a10.757,10.757,0,0,0-5.874,9.536c0,6.852-1.434,17.474,12.287,17.9,2.26.068,6.553,0,6.553,0s-2.632-29.222,24.211-30.077c27.309-.871,25.5,29.809,25.5,29.809H270.05s-4.68-29.889,24.718-29.949,24.925,30.145,24.925,30.145,10.814.934,15.845-8.154,3.726-15.573,3.726-15.573l-.168-5.746a3.722,3.722,0,0,0-3.594-3.594h0s1.965-14.463-1.05-16.967-19.535-17.61-19.535-17.61l.8-.491a1.853,1.853,0,0,0-.4-3.322c-6.273-2.156-18.676-6.425-21.591-7.443a5.246,5.246,0,0,0-1.354-.288c-1.741-.132-6.669-.443-15.713-.539-11.017-.12-54.759,0-54.759,0s-15.054,1.238-23.44,4.928C189.667,208.719,159.139,225.2,159.139,225.2Z" transform="translate(-87.483 -199.857)" fill="#21b586"/><g transform="translate(3.225 61.012)" opacity="0.4"><path d="M100.356,352.788c-1.142-.232-2.891-.252-3.762.519a3.589,3.589,0,0,0-.914,2.364,10.047,10.047,0,0,0,.08,3.542,4.321,4.321,0,0,0,2,2.823,2.777,2.777,0,0,0,3.286-.4,4.258,4.258,0,0,0,.8-3.063,24.8,24.8,0,0,0-.188-4.361,2.1,2.1,0,0,0-.4-.883,1.2,1.2,0,0,0-.91-.547" transform="translate(-95.56 -352.647)"/></g><path d="M100.428,319.019c3.338,0,6.577-.184,9.911-.4a1.6,1.6,0,0,0,1.014-.307,1.621,1.621,0,0,0,.347-1.2c0-1.789-.072-3.825-1.43-4.991a5.374,5.374,0,0,0-3.059-1.034,19.7,19.7,0,0,0-8.042.8Z" transform="translate(-94.503 -266.603)" fill="#fafafa"/><path d="M179.761,341.543a2.612,2.612,0,0,0-.024-.288c-.024-.192-.032-.475-.056-.839-.04-.743-.1-1.825-.176-3.223s-.172-3.111-.371-5.091a40.252,40.252,0,0,0-1.178-6.641,30.248,30.248,0,0,0-3.215-7.487,23.56,23.56,0,0,0-6.217-6.932c-5.387-3.833-12.666-5.99-20.281-6.094a32.776,32.776,0,0,0-20.154,6.341,29.55,29.55,0,0,0-6.537,6.673,31.411,31.411,0,0,0-3.825,7.188,29.107,29.107,0,0,0-1.617,6.537,27.405,27.405,0,0,0-.2,5.083,25.434,25.434,0,0,0,.4,3.195c.064.355.116.631.148.823s.044.284.044.284-.024-.092-.064-.276l-.172-.8a23.3,23.3,0,0,1-.431-3.195,26.917,26.917,0,0,1,.16-5.1,29.111,29.111,0,0,1,1.6-6.573,31.547,31.547,0,0,1,3.825-7.248,29.55,29.55,0,0,1,6.565-6.725,32.927,32.927,0,0,1,20.253-6.389c7.675.1,14.966,2.276,20.4,6.146a23.72,23.72,0,0,1,6.249,7,30.157,30.157,0,0,1,3.195,7.543,39.552,39.552,0,0,1,1.154,6.669c.188,2,.272,3.7.335,5.1s.108,2.484.14,3.227c0,.363.024.643.032.839A2.369,2.369,0,0,0,179.761,341.543Z" transform="translate(-104.482 -262.872)" fill="#fff"/><path d="M277.5,284.842v-.24l-.024-.707c-.02-.631-.048-1.553-.088-2.759-.068-2.424-.168-5.966-.3-10.474s-.276-9.983-.447-16.252c-.044-1.569-.084-3.195-.132-4.852a16.468,16.468,0,0,1,.112-2.536l.18-1.286.264-1.29a26.115,26.115,0,0,1,1.777-5.115,25.763,25.763,0,0,1,2.915-4.848h0L301.5,222.049l5.331-3.354a41.879,41.879,0,0,1,5.642-3.151,57.986,57.986,0,0,1,6.157-2.48c1.046-.367,2.12-.667,3.195-.986s2.168-.583,3.278-.8a74.778,74.778,0,0,1,12.718-1.6,120.536,120.536,0,0,1,12.319.04h.116l-.028.116-5.3,23.724h0a26.2,26.2,0,0,0-2.4,5.1,13.92,13.92,0,0,0-.8,5.271c.136,1.753.184,3.47.228,5.135s.064,3.278.1,4.848c.092,6.269.116,11.736.132,16.24s0,8.046,0,10.466v0c0-2.42-.036-5.962-.064-10.462s-.068-9.983-.176-16.244q-.048-2.348-.1-4.844c-.048-1.665-.1-3.374-.236-5.127a14.065,14.065,0,0,1,.8-5.339,25.989,25.989,0,0,1,2.4-5.139v.028c1.625-7.3,3.4-15.274,5.283-23.728l.092.12a120.015,120.015,0,0,0-12.291-.032,73.953,73.953,0,0,0-12.686,1.6c-1.106.22-2.184.527-3.266.8s-2.14.619-3.195.982a57.9,57.9,0,0,0-6.158,2.484,41.637,41.637,0,0,0-5.614,3.131l-5.335,3.354L281.9,234.608v-.02a25.408,25.408,0,0,0-2.907,4.82,25.7,25.7,0,0,0-1.773,5.079c-.9,3.422-.447,6.788-.439,9.923l.4,16.252c.108,4.5.192,8.05.248,10.47.028,1.2.044,2.132.06,2.763v.707A2.173,2.173,0,0,1,277.5,284.842Z" transform="translate(-201.026 -205.676)" fill="#263238"/><path d="M460.55,210.619h.188l.547-.02,2.12-.052,7.863-.152,26.507-.455h.052l.032.04,3.714,4.548c3.762,4.62,7.347,9.013,10.606,13.006l1.2,1.477a8.759,8.759,0,0,1,.994,1.6,8.3,8.3,0,0,1,.148,6.741l-1.2,2.8-3.666,8.482-1.006,2.3-.268.6c-.06.132-.1.2-.1.2s.024-.072.076-.208.144-.347.248-.607c.228-.535.551-1.318.97-2.316l3.594-8.505c.687-1.8,1.9-3.706,1.813-6.022a8.155,8.155,0,0,0-.8-3.4,8.485,8.485,0,0,0-.974-1.553l-1.2-1.477L501.4,214.644l-3.71-4.548.08.04-26.511.4-7.863.092H460.73Z" transform="translate(-311.577 -205.914)" fill="#263238"/><path d="M410.263,292.85a1.541,1.541,0,0,0,.315-.048,2.22,2.22,0,0,0,.839-.335,2.121,2.121,0,0,0,.855-1.11,2.4,2.4,0,0,0,.112-.879,2.188,2.188,0,0,0-.248-.95,2.12,2.12,0,0,0-1.841-1.122h-8.861a2.106,2.106,0,0,0-2.076,1.857,2.4,2.4,0,0,0,.256,1.41,2.124,2.124,0,0,0,1.022.906,3.247,3.247,0,0,0,1.33.164h3.654l3.4.032.922.02a1.711,1.711,0,0,1,.323.024,2.937,2.937,0,0,1-.323.02h-.922l-3.4.032h-4.345a2.215,2.215,0,0,1-.711-.164,2.3,2.3,0,0,1-1.122-.986,2.52,2.52,0,0,1-.284-1.529,2.3,2.3,0,0,1,2.276-2.041H410.3a2.264,2.264,0,0,1,1.965,1.226,2.32,2.32,0,0,1,.252,1.014,2.536,2.536,0,0,1-.132.918,2.216,2.216,0,0,1-.922,1.142,2.049,2.049,0,0,1-.875.307A1.419,1.419,0,0,1,410.263,292.85Z" transform="translate(-274.687 -252.893)" fill="#263238"/><path d="M558.263,292.85a1.541,1.541,0,0,0,.315-.048,2.22,2.22,0,0,0,.839-.335,2.12,2.12,0,0,0,.855-1.11,2.4,2.4,0,0,0,.112-.879,2.189,2.189,0,0,0-.248-.95,2.12,2.12,0,0,0-1.841-1.122h-8.861a2.106,2.106,0,0,0-2.076,1.857,2.4,2.4,0,0,0,.256,1.41,2.125,2.125,0,0,0,1.022.906,3.246,3.246,0,0,0,1.33.164h3.654l3.4.032.922.02a1.712,1.712,0,0,1,.323.024,2.94,2.94,0,0,1-.323.02h-.922l-3.4.032h-4.345a2.215,2.215,0,0,1-.711-.164,2.3,2.3,0,0,1-1.122-.986,2.52,2.52,0,0,1-.284-1.529,2.3,2.3,0,0,1,2.276-2.041H558.3a2.264,2.264,0,0,1,1.965,1.226,2.32,2.32,0,0,1,.252,1.014,2.537,2.537,0,0,1-.132.918,2.216,2.216,0,0,1-.922,1.142,2.049,2.049,0,0,1-.874.307A1.417,1.417,0,0,1,558.263,292.85Z" transform="translate(-363.588 -252.893)" fill="#263238"/><path d="M680.351,275.78h-11.82a4.364,4.364,0,0,0-3.861,2.328h0a4.369,4.369,0,0,0-.128,3.79l4.632,10.53,11.836-.116S683.529,278.963,680.351,275.78Z" transform="translate(-433.888 -245.462)" fill="#fafafa"/><path d="M293.6,234l60.988-1.126,39.692-.727,13.09-7.559a2.032,2.032,0,0,0,.6-2.987l-8.15-10.706a4.528,4.528,0,0,0-3.57-1.789l-44.4-.359s-16.716-.974-29.889,6.389A283.7,283.7,0,0,0,293.6,234Z" transform="translate(-211.293 -205.171)" fill="#263238"/><path d="M305.042,211.58s3.059,1.394,1.07,2.683-32.888,20.765-32.888,20.765l-7.1-3.215C278.7,224.813,291.409,218.005,305.042,211.58Z" transform="translate(-194.787 -206.899)" fill="#455a64"/><path d="M174.815,271.54l-.192.048-.563.124-2.168.447c-1.885.375-4.616.9-7.986,1.485-6.788,1.166-16.18,2.524-26.631,3.426-2.616.228-5.191.4-7.635.575s-4.848.315-7.108.519a61.836,61.836,0,0,0-11.864,2.033,33.411,33.411,0,0,0-7.5,3.107c-.851.447-1.458.886-1.885,1.15l-.487.307-.172.1a1.938,1.938,0,0,1,.16-.116l.475-.327c.423-.276,1.022-.727,1.869-1.2a32.579,32.579,0,0,1,7.475-3.195,60.4,60.4,0,0,1,11.888-2.08c2.264-.216,4.644-.367,7.112-.531s5.019-.355,7.631-.583c10.446-.9,19.85-2.236,26.627-3.366,3.39-.563,6.122-1.066,8.01-1.418l2.176-.4.567-.1Z" transform="translate(-95.38 -242.915)" fill="#263238"/><path d="M689.207,339.774c0,.06-4.065.1-9.076.1s-9.081-.044-9.081-.1,4.065-.1,9.081-.1S689.207,339.718,689.207,339.774Z" transform="translate(-438.021 -283.84)" fill="#263238"/><path d="M376.113,365.754c0,.06-22.945.1-51.245.1s-51.249-.044-51.249-.1,22.941-.1,51.249-.1S376.113,365.7,376.113,365.754Z" transform="translate(-199.292 -299.446)" fill="#263238"/><path d="M106.2,340.634c0,.06-3.246.1-7.248.1s-7.248-.044-7.248-.1,3.246-.1,7.248-.1S106.2,340.578,106.2,340.634Z" transform="translate(-90.016 -284.356)" fill="#263238"/><path d="M653.408,229.21s-2.723,3.047-1.653,5.283,12.135,10.071,12.135,10.071l8.03,1.505Z" transform="translate(-426.281 -217.489)" fill="#455a64"/><path d="M462.355,215.54l-1.8,19.5,32.313-.922,13.022-7.571-8.43-11.009Z" transform="translate(-311.577 -209.277)" fill="#455a64"/><path d="M312.76,235.955s19.495-14.08,27.186-16.879a49.528,49.528,0,0,1,18.265-3.594c6.665-.192,10.726,0,10.726,0l-5.151,19.826Z" transform="translate(-222.803 -209.191)" fill="#455a64"/><path d="M305.62,257.089h0a3.422,3.422,0,0,1,1.741-2.979l4.48-2.516a8.51,8.51,0,0,1,4.181-1.094h0a8.613,8.613,0,0,1,2.655.423,4.856,4.856,0,0,1,3.266,4.46h0a4.932,4.932,0,0,1-4.932,5.119h-7.986A3.414,3.414,0,0,1,305.62,257.089Z" transform="translate(-218.514 -230.277)" fill="#21b586"/><path d="M305.6,256.926a2.641,2.641,0,0,0,.052.431,3.39,3.39,0,0,0,.4,1.17,3.513,3.513,0,0,0,1.374,1.354,3.377,3.377,0,0,0,1.15.359,12.872,12.872,0,0,0,1.378.028l6.832-.024a5.124,5.124,0,0,0,1.9-.311,4.856,4.856,0,0,0,2.827-2.8,4.971,4.971,0,0,0,.3-2.112,4.836,4.836,0,0,0-2.017-3.574,5.143,5.143,0,0,0-1.849-.8,8.477,8.477,0,0,0-5.439.523c-.515.232-.986.523-1.454.775l-1.334.743-2.3,1.27a3.438,3.438,0,0,0-1.374,1.354,3.5,3.5,0,0,0-.4,1.17c-.04.28-.036.431-.048.431a2.156,2.156,0,0,1,0-.439,3.3,3.3,0,0,1,.367-1.2,3.45,3.45,0,0,1,1.386-1.414l2.28-1.3,1.326-.755c.463-.256.934-.551,1.461-.8a8.585,8.585,0,0,1,5.555-.559,5.291,5.291,0,0,1,1.921.8,5.032,5.032,0,0,1,2.108,3.726,5.139,5.139,0,0,1-.311,2.2,5.047,5.047,0,0,1-2.955,2.915,5.367,5.367,0,0,1-1.969.315l-6.832-.02a13.184,13.184,0,0,1-1.394-.044,3.454,3.454,0,0,1-1.2-.4,3.538,3.538,0,0,1-1.39-1.414,3.358,3.358,0,0,1-.363-1.2,2.613,2.613,0,0,1,0-.415Z" transform="translate(-218.498 -230.115)" fill="#263238"/><path d="M588.593,344.157v-.276c0-.184.032-.459.056-.8s.064-.8.088-1.318.04-1.126.06-1.8,0-1.434,0-2.256a23.333,23.333,0,0,0-.172-2.679,34.573,34.573,0,0,0-1.154-6.421,29.015,29.015,0,0,0-1.274-3.594,23.385,23.385,0,0,0-1.925-3.626,24.673,24.673,0,0,0-6.245-6.509,29.548,29.548,0,0,0-8.953-4.416,37.545,37.545,0,0,0-10.646-1.418,35.072,35.072,0,0,0-10.622,1.545,29.9,29.9,0,0,0-4.728,1.953,27.121,27.121,0,0,0-4.1,2.683,34.045,34.045,0,0,0-6.325,6.485,24.961,24.961,0,0,0-2.1,3.53,34.3,34.3,0,0,0-1.454,3.51,41.9,41.9,0,0,0-2.308,11.181c-.064,1.354-.056,2.4-.02,3.123.02.351.036.619.044.8a2.428,2.428,0,0,1,0,.276,1.811,1.811,0,0,0-.032-.276c-.032-.184-.04-.459-.068-.8a30.845,30.845,0,0,1,0-3.127,41.17,41.17,0,0,1,2.248-11.249,36.179,36.179,0,0,1,1.446-3.53,26.007,26.007,0,0,1,2.108-3.562,34.373,34.373,0,0,1,6.345-6.533,27.481,27.481,0,0,1,4.129-2.707,30.1,30.1,0,0,1,4.76-1.969,35.036,35.036,0,0,1,10.686-1.561,37.6,37.6,0,0,1,10.706,1.43,29.693,29.693,0,0,1,9.009,4.456,27.372,27.372,0,0,1,3.53,3.1,21.586,21.586,0,0,1,2.743,3.478,23.555,23.555,0,0,1,1.929,3.658,28.4,28.4,0,0,1,1.266,3.594,34.137,34.137,0,0,1,1.13,6.453c.108.958.108,1.857.152,2.683s0,1.6,0,2.26-.06,1.282-.084,1.8-.076.958-.108,1.318-.056.619-.072.8S588.593,344.157,588.593,344.157Z" transform="translate(-351.295 -265.306)" fill="#fff"/><path d="M384.627,272.05h-.363l-1.042.024-3.829.068c-3.234.06-7.7.18-12.634.315s-9.4.228-12.638.252h-5.143a.256.256,0,0,1-.1,0,.3.3,0,0,1,.1,0h.268l1.042-.024,3.829-.068c3.234-.06,7.7-.18,12.638-.311s9.4-.232,12.638-.256h5.235Z" transform="translate(-244.499 -243.222)" fill="#fff"/><path d="M414.616,286.905a58.982,58.982,0,0,1-7,0,58.982,58.982,0,0,1,7,0Z" transform="translate(-279.783 -252.075)" fill="#fff"/><path d="M399.059,233.568c.02.052-4.321,1.861-9.7,4.037s-9.755,3.9-9.779,3.845,4.321-1.861,9.7-4.037S399.035,233.516,399.059,233.568Z" transform="translate(-262.94 -220.106)" fill="#fff"/><path d="M378.412,237c.024.056-4.113,1.877-9.236,4.069s-9.292,3.929-9.316,3.877,4.113-1.873,9.236-4.069S378.388,236.938,378.412,237Z" transform="translate(-251.094 -222.166)" fill="#fff"/><path d="M516.779,231.678c.024.052-4.321,1.861-9.7,4.037s-9.755,3.9-9.779,3.845,4.321-1.861,9.7-4.037S516.747,231.622,516.779,231.678Z" transform="translate(-333.652 -218.97)" fill="#fff"/><path d="M496.092,235.089c.024.056-4.113,1.877-9.232,4.069s-9.3,3.929-9.32,3.877,4.113-1.873,9.236-4.069S496.092,235.053,496.092,235.089Z" transform="translate(-321.783 -221.02)" fill="#fff"/><path d="M490.172,271.944c0,.056-8.637.156-19.291.22s-19.291.068-19.291,0,8.633-.156,19.291-.216S490.172,271.9,490.172,271.944Z" transform="translate(-306.195 -243.136)" fill="#fff"/><path d="M555.882,286.148c0,.056-2.42.124-5.411.152s-5.411,0-5.411-.052,2.42-.128,5.411-.156S555.882,286.089,555.882,286.148Z" transform="translate(-362.341 -251.65)" fill="#fff"/><path d="M125.641,278.85a.963.963,0,0,1-.236.048l-.675.088c-.3.032-.655.076-1.07.148s-.89.124-1.41.228c-1.042.184-2.276.455-3.626.8a44.958,44.958,0,0,0-4.317,1.43c-1.5.6-2.9,1.246-4.141,1.889a33.827,33.827,0,0,0-3.195,1.869c-.451.276-.843.555-1.2.8s-.647.443-.886.619l-.555.4a1.238,1.238,0,0,1-.2.128,1.154,1.154,0,0,1,.176-.16l.535-.427c.232-.184.519-.4.867-.651a12.443,12.443,0,0,1,1.2-.8c.879-.595,1.965-1.246,3.195-1.913a39.093,39.093,0,0,1,8.5-3.334c1.358-.351,2.6-.611,3.65-.775.523-.1,1-.144,1.418-.2s.8-.092,1.074-.112l.683-.052a1.562,1.562,0,0,1,.22-.02Z" transform="translate(-97.482 -247.306)" fill="#fff"/><path d="M318.632,253.63a2.158,2.158,0,0,0-.4-.371,2.659,2.659,0,0,0-1.318-.531,5.69,5.69,0,0,0-2.132.228,16.372,16.372,0,0,0-6.6,3.4c-.95.8-1.453,1.386-1.481,1.358a2.568,2.568,0,0,1,.335-.423,14.077,14.077,0,0,1,1.046-1.046,15.315,15.315,0,0,1,4.1-2.62,14.814,14.814,0,0,1,2.552-.851,5.658,5.658,0,0,1,2.2-.192,2.564,2.564,0,0,1,1.35.619,1.729,1.729,0,0,1,.268.3C318.616,253.582,318.64,253.626,318.632,253.63Z" transform="translate(-219.162 -231.506)" fill="#fff"/><path d="M594.844,217.269a6.388,6.388,0,0,1-1.7.176,10.778,10.778,0,0,1-2-.248,18.219,18.219,0,0,1-2.544-.8c-.922-.347-1.9-.8-2.967-1.242l-1.657-.667c-.571-.228-1.174-.423-1.781-.647a69.588,69.588,0,0,0-8.138-2.216,93.64,93.64,0,0,0-15.206-1.885c-.982-.052-1.869-.052-2.651-.072h-2l-1.262.028H552.5a.3.3,0,0,1,.112,0l.327-.024,1.266-.068,2-.036c.8,0,1.669,0,2.651.048a88.09,88.09,0,0,1,15.246,1.837,66.711,66.711,0,0,1,8.15,2.22c.607.224,1.2.423,1.785.655l1.657.683c1.062.459,2.041.906,2.955,1.262a17.507,17.507,0,0,0,2.512.8,10.568,10.568,0,0,0,1.973.28,9.093,9.093,0,0,0,1.258-.044l.323-.04Z" transform="translate(-366.81 -205.691)" fill="#263238"/></g><g transform="translate(45.192 86.462)"><path d="M133.747,198.951c-1.6-8.737-2.671-10.079-3.574-13.086s-2.336-4.96-4.121-5.65c-1.2-.463-7.216-2.632-9.308-1.913a26.254,26.254,0,0,0-5.8,2.915,7.771,7.771,0,0,0-3.027,3.873L104.72,194.1l5.622,5.59,2.819-5.99,3.059,7.188-.451,7.248,17.542,4.72C134.893,210.3,134.653,203.907,133.747,198.951Z" transform="translate(-88.385 -162.045)" fill="#21b586"/><g transform="translate(28.975 27.375)" opacity="0.2"><path d="M148.205,206.36c-.775,4.548-.9,5.191-1.673,9.723a11.12,11.12,0,0,1-2.156,5.127,5.964,5.964,0,0,1-2.775,1.909,6.648,6.648,0,0,1-3.678-.16,3.277,3.277,0,0,1-1.442-3.4c1.489.319,1.949.8,3.23,0a11.19,11.19,0,0,0,3.314-3.462c2.56-4.952,3.266-5.127,5.191-9.739" transform="translate(-136.375 -206.36)"/></g><path d="M126.379,215.924a11.064,11.064,0,0,1-.775-1.2l-1.8-2.967-1.853-2.919a10.7,10.7,0,0,1-.747-1.23,1.525,1.525,0,0,1,.252.3c.152.2.363.487.615.851.511.727,1.2,1.745,1.909,2.891s1.33,2.208,1.757,2.987c.216.4.4.7.5.926A1.266,1.266,0,0,1,126.379,215.924Z" transform="translate(-98.285 -179.736)" fill="#263238"/><path d="M148.966,245.956a2,2,0,0,1-.4.156,4.526,4.526,0,0,1-.5.136,5.77,5.77,0,0,1-.671.14,10.61,10.61,0,0,1-1.773.164,12.464,12.464,0,0,1-2.176-.188,12.246,12.246,0,0,1-2.1-.595,11.214,11.214,0,0,1-1.6-.775c-.224-.124-.4-.26-.575-.367a4.633,4.633,0,0,1-.419-.307,1.845,1.845,0,0,1-.331-.292c.024-.032.519.355,1.4.839a12.624,12.624,0,0,0,1.6.723,12.239,12.239,0,0,0,4.213.771,13.1,13.1,0,0,0,1.753-.116C148.355,246.1,148.954,245.916,148.966,245.956Z" transform="translate(-108.628 -201.61)" fill="#263238"/><path d="M120.621,205.078c-.032.156-1.917,3.909-1.917,3.909l-8.9-4.688-.906-3.833a2.4,2.4,0,0,0-2.883-1.765l-2.624,1.074a.7.7,0,0,0-.431.507c-.036.192,0,.4.347.355.651-.052,2-.2,2-.2l-.619,2.184a2.32,2.32,0,0,0,.176,1.713l.4.755.867,1.4h-.02s8.649,8.885,13.5,9.464c2.919.347,6.225-7.835,6.225-7.835Z" transform="translate(-87.323 -174.345)" fill="#b78876"/><path d="M108.69,202.929a.936.936,0,0,1,.216-.192,1.158,1.158,0,0,1,.675-.208.7.7,0,0,1,.595.4c.084.18.028.3,0,.291s0-.112-.1-.248a.691.691,0,0,0-.523-.3,1.354,1.354,0,0,0-.619.16C108.814,202.893,108.7,202.945,108.69,202.929Z" transform="translate(-90.77 -176.685)" fill="#aa6550"/><path d="M109.553,205.931s-.06-.072-.144-.18a.974.974,0,0,0-.922-.363c-.136,0-.22.048-.228.032s.064-.076.208-.124a.894.894,0,0,1,1.018.4C109.557,205.831,109.565,205.927,109.553,205.931Z" transform="translate(-90.511 -178.324)" fill="#aa6550"/><path d="M148.216,185.09l-2.4,11.417,6.389,3.837,2.452-7.016S153.631,184.806,148.216,185.09Z" transform="translate(-113.073 -166.204)" fill="#21b586"/><path d="M133.361,185.6a1.029,1.029,0,0,1-.164.1c-.112.06-.272.148-.483.256-.423.216-1.046.519-1.825.867a26.911,26.911,0,0,1-6.345,2,15.888,15.888,0,0,1-6.637-.224,11.275,11.275,0,0,1-1.893-.683,3.845,3.845,0,0,1-.491-.248,1.133,1.133,0,0,1-.164-.1,6.692,6.692,0,0,1,.687.276,13.894,13.894,0,0,0,1.909.615,16.468,16.468,0,0,0,6.565.16,29.086,29.086,0,0,0,6.325-1.929c.8-.327,1.41-.611,1.845-.8a5.514,5.514,0,0,1,.671-.292Z" transform="translate(-94.777 -166.515)" fill="#ebebeb"/><path d="M133.475,188.76a.945.945,0,0,1-.18.128l-.527.339a9.65,9.65,0,0,1-.863.5c-.343.18-.727.4-1.178.6l-.695.319c-.244.112-.507.2-.775.311-.531.22-1.122.4-1.737.6a24.075,24.075,0,0,1-8.326.986c-.647-.052-1.262-.088-1.829-.18-.288-.044-.563-.072-.827-.12l-.755-.152c-.479-.084-.906-.212-1.282-.307a9.616,9.616,0,0,1-.954-.284l-.595-.208a.846.846,0,0,1-.2-.084.754.754,0,0,1,.216.044l.607.168c.26.08.579.172.958.252s.8.2,1.286.276l.751.136c.26.048.535.072.8.108.567.084,1.2.116,1.817.16a24.8,24.8,0,0,0,8.266-.978c.611-.192,1.2-.363,1.729-.579.264-.1.527-.192.771-.3l.7-.307c.451-.184.835-.4,1.2-.567a9.569,9.569,0,0,0,.875-.467l.551-.3a.843.843,0,0,1,.2-.1Z" transform="translate(-93.209 -168.413)" fill="#ebebeb"/><path d="M151.586,200a4.155,4.155,0,0,1-.519-.264l-1.406-.8-4.792-2.767-.06-.036v-.068c.172-.851.355-1.769.547-2.711.288-1.422.567-2.771.8-3.993.132-.615.24-1.2.359-1.753a6.33,6.33,0,0,1,.511-1.481,3,3,0,0,1,1.653-1.513,1.832,1.832,0,0,1,.611-.1.591.591,0,0,1,.212.024,2.647,2.647,0,0,0-.8.152,2.979,2.979,0,0,0-1.549,1.5,6.438,6.438,0,0,0-.475,1.458c-.108.547-.22,1.134-.339,1.745-.248,1.238-.519,2.588-.8,3.993-.192.946-.379,1.861-.551,2.711l-.048-.1,4.764,2.831,1.378.839a3.618,3.618,0,0,1,.5.335Z" transform="translate(-112.467 -165.864)" fill="#263238"/><path d="M163.913,204.88a4.157,4.157,0,0,1-.032,1.066,15.972,15.972,0,0,1-.455,2.528,16.656,16.656,0,0,1-.847,2.428,4.129,4.129,0,0,1-.5.942,7.61,7.61,0,0,1,.363-1,23.751,23.751,0,0,0,1.294-4.92,8.356,8.356,0,0,1,.176-1.046Z" transform="translate(-122.84 -178.096)" fill="#263238"/><path d="M70.273,363.91,70.2,370s-6.221,1.977-6.341,3.1l11.812.559.5-9.492Z" transform="translate(-63.841 -273.623)" fill="#455a64"/><path d="M88.114,378.3a.483.483,0,0,1,.307.567.463.463,0,0,1-.559.311.515.515,0,0,1-.323-.6.483.483,0,0,1,.619-.256" transform="translate(-78.056 -282.258)" fill="#e0e0e0"/><path d="M75.644,386.628v-.958l-11.333-.18s-.539.2-.5.579Z" transform="translate(-63.814 -286.585)" fill="#e0e0e0"/><path d="M79.27,378.931c0,.056.288.1.559.3s.4.447.471.427,0-.355-.355-.591S79.258,378.875,79.27,378.931Z" transform="translate(-73.098 -282.618)" fill="#263238"/><path d="M76.1,380.1c0,.056.232.168.4.419s.228.515.288.515.108-.323-.128-.635S76.1,380.049,76.1,380.1Z" transform="translate(-71.194 -283.337)" fill="#263238"/><path d="M73.52,382.25c.052,0,.148-.268,0-.591s-.4-.459-.423-.4.132.224.236.491S73.456,382.242,73.52,382.25Z" transform="translate(-69.388 -284.036)" fill="#263238"/><path d="M79.688,375.247c.024.056.292,0,.619.024s.571.156.6.108-.2-.268-.583-.307S79.664,375.2,79.688,375.247Z" transform="translate(-73.348 -280.323)" fill="#263238"/><g transform="translate(6.404 91.493)" opacity="0.3"><path d="M79.866,366.93l-.016,1.086,5.81.224.052-.978Z" transform="translate(-79.85 -366.93)"/></g><path d="M79.79,371.117a1.094,1.094,0,0,0,.591.028,2.563,2.563,0,0,0,.627-.164,2.271,2.271,0,0,0,.347-.164.711.711,0,0,0,.188-.128.252.252,0,0,0,.04-.307.324.324,0,0,0-.248-.144.8.8,0,0,0-.224.02,2.115,2.115,0,0,0-.371.108,2.183,2.183,0,0,0-.563.331c-.288.244-.4.455-.371.467s.168-.156.455-.351a2.456,2.456,0,0,1,.543-.272,2.268,2.268,0,0,1,.343-.088c.128-.028.236-.024.264.032s0,.032,0,.068a.71.71,0,0,1-.136.1c-.108.06-.216.116-.319.164a3.4,3.4,0,0,1-.583.192A4.592,4.592,0,0,0,79.79,371.117Z" transform="translate(-73.41 -277.423)" fill="#263238"/><path d="M78.938,369.806a.942.942,0,0,0,.18-.563,1.877,1.877,0,0,0-.048-.651,1.857,1.857,0,0,0-.136-.367.487.487,0,0,0-.363-.315.268.268,0,0,0-.252.152.719.719,0,0,0-.072.216,1.338,1.338,0,0,0,0,.4,1.354,1.354,0,0,0,.224.623c.216.319.455.4.459.379a2.376,2.376,0,0,1-.339-.451,1.354,1.354,0,0,1-.16-.563,1.262,1.262,0,0,1,.028-.343c.024-.124.076-.224.124-.208a.419.419,0,0,1,.2.2,1.871,1.871,0,0,1,.132.327,2.124,2.124,0,0,1,.088.6C78.966,369.583,78.894,369.794,78.938,369.806Z" transform="translate(-72.475 -276.025)" fill="#263238"/><path d="M95.047,241.241s-18.457-7.747-24.167-8.07c-3.594-.208-6.293,2.092-5.806,5.8.244,1.857,5.343,23.56,5.343,23.56l7.771-3.546-3.738-15.01,15.174,7.371Z" transform="translate(-64.537 -195.082)" fill="#263238"/><path d="M82.824,250.727a21.541,21.541,0,0,0,1.2,1.881c.647,1.042,1.078,1.941,1.15,1.913a8.464,8.464,0,0,0-2.348-3.794Z" transform="translate(-75.23 -205.634)" fill="#455a64"/><path d="M79.048,252.882a20.574,20.574,0,0,0,2,1.465,21.24,21.24,0,0,0,2,1.458,7.352,7.352,0,0,0-1.849-1.681A8.291,8.291,0,0,0,79.048,252.882Z" transform="translate(-72.964 -206.927)" fill="#455a64"/><path d="M116.226,258.056s-2.32,2.991-4.532,3.81c-2.8,1.026-23.344,10.726-23.344,10.726s-3.73,27.709-3.434,26.551l-8.605-.208.934-25.52c.112-3.266,2.731-7.02,5.547-8.689L101.83,253.4Z" transform="translate(-71.32 -207.241)" fill="#263238"/><path d="M78.218,280.11a1.35,1.35,0,0,0,.036-.351c0-.256.032-.587.052-1a34.443,34.443,0,0,1,.343-3.67,12.6,12.6,0,0,1,1.869-5.047,9.643,9.643,0,0,1,2.212-2.284,26.568,26.568,0,0,1,2.919-1.849c4.141-2.372,7.715-4.792,10.358-6.449,1.318-.839,2.4-1.505,3.131-1.961l.855-.527a1.839,1.839,0,0,0,.291-.2,1.742,1.742,0,0,0-.315.152c-.2.108-.5.268-.882.483-.763.427-1.849,1.074-3.195,1.889-2.671,1.621-6.265,4.013-10.382,6.389a26.462,26.462,0,0,0-2.947,1.873,9.767,9.767,0,0,0-2.26,2.356,12.639,12.639,0,0,0-1.841,5.171,28.751,28.751,0,0,0-.256,3.694v1.006A1.832,1.832,0,0,0,78.218,280.11Z" transform="translate(-72.457 -209.266)" fill="#455a64"/><path d="M154.7,264.009a6.5,6.5,0,0,0-.527-.707,5.167,5.167,0,0,1-.8-3.993,6.46,6.46,0,0,0,.208-.859,1.925,1.925,0,0,0-.4.8,4.58,4.58,0,0,0-.088,2.18,4.52,4.52,0,0,0,.926,1.973C154.382,263.861,154.682,264.033,154.7,264.009Z" transform="translate(-117.387 -210.275)" fill="#455a64"/><path d="M84.217,300.43a.539.539,0,0,0,.024-.14c0-.112.032-.248.052-.419.044-.4.1-.926.172-1.6.14-1.422.339-3.446.587-5.938.116-1.254.248-2.628.4-4.1s.292-3.051.4-4.712a50.657,50.657,0,0,1,.587-5.191,21.244,21.244,0,0,1,1.6-5.331,17.969,17.969,0,0,1,3.123-4.58,28.393,28.393,0,0,1,3.9-3.434,78.836,78.836,0,0,1,7.471-4.66c2.184-1.254,3.925-2.324,5.079-3.131.583-.4,1.022-.723,1.318-.95l.331-.26q.112-.088.108-.1a.507.507,0,0,0-.124.072l-.347.24c-.3.212-.755.523-1.342.91-1.174.775-2.923,1.817-5.119,3.051a75.037,75.037,0,0,0-7.523,4.624,28.066,28.066,0,0,0-3.945,3.454,18.089,18.089,0,0,0-3.175,4.648,21.44,21.44,0,0,0-1.6,5.395c-.3,1.8-.451,3.542-.575,5.191s-.248,3.238-.4,4.712-.248,2.847-.355,4.105c-.212,2.5-.4,4.52-.5,5.946q-.08,1.03-.12,1.6c0,.172-.02.311-.028.419A.447.447,0,0,0,84.217,300.43Z" transform="translate(-76.065 -208.737)" fill="#455a64"/><path d="M118.03,140.016a3.366,3.366,0,0,0-3.845-2.072,3.993,3.993,0,0,1-1.07.232,7.639,7.639,0,0,1-1.3-.343,1.957,1.957,0,0,0-2.2,1.43,2.655,2.655,0,0,0-2.192.435,1.721,1.721,0,0,0-.515,2.068c.156.292.4.523.555.823a11.73,11.73,0,0,1,.292,1.6,2.156,2.156,0,0,0,1.861,1.334,6.337,6.337,0,0,0,2.4-.339" transform="translate(-89.604 -137.806)" fill="#263238"/><path d="M118.409,160.082c-.1-.775-.164-1.318-.164-1.318s-2.576,0-3.594-3.195a35.57,35.57,0,0,1-1.066-6.469,3.494,3.494,0,0,1,3.294-3.825l6.836-.355.148,1.058,1.8,13.146a3.65,3.65,0,0,1-3.143,4.113h0a3.658,3.658,0,0,1-4.113-3.155Z" transform="translate(-93.701 -142.079)" fill="#b78876"/><path d="M116,159.422a.427.427,0,0,0,.471.359.4.4,0,0,0,.371-.447.419.419,0,0,0-.471-.359.4.4,0,0,0-.371.447Z" transform="translate(-95.156 -150.519)" fill="#263238"/><path d="M115.543,157.736c.06.044.339-.24.8-.311s.8.1.859.04-.048-.12-.208-.2a1.142,1.142,0,0,0-.7-.1,1.094,1.094,0,0,0-.619.315C115.543,157.608,115.511,157.716,115.543,157.736Z" transform="translate(-94.879 -149.424)" fill="#263238"/><path d="M126.716,157.6a.423.423,0,0,0,.471.355.4.4,0,0,0,.375-.443.427.427,0,0,0-.471-.359.4.4,0,0,0-.375.447Z" transform="translate(-101.596 -149.427)" fill="#263238"/><path d="M126.685,156.179c.06.048.339-.24.8-.307s.8.1.859.036-.048-.116-.208-.2a1.2,1.2,0,0,0-.7-.1,1.134,1.134,0,0,0-.619.315C126.685,156.051,126.657,156.155,126.685,156.179Z" transform="translate(-101.573 -148.49)" fill="#263238"/><path d="M122.077,160.418a2.823,2.823,0,0,0-.755,0c-.116,0-.228,0-.26-.076a.587.587,0,0,1,0-.355c.064-.3.132-.607.2-.93a15.914,15.914,0,0,0,.4-2.416,15.521,15.521,0,0,0-.595,2.4c-.064.327-.128.639-.184.938a.651.651,0,0,0,0,.459.3.3,0,0,0,.216.14.8.8,0,0,0,.2,0A3.127,3.127,0,0,0,122.077,160.418Z" transform="translate(-98.071 -149.119)" fill="#263238"/><path d="M125.28,176.785a8.422,8.422,0,0,0,4.193-1.865s-.711,2.428-4.029,2.632Z" transform="translate(-100.735 -160.1)" fill="#aa6550"/><path d="M125.5,166.349c-.076,0,0,.5-.359.91s-.894.443-.89.511.132.08.355.048a1.2,1.2,0,0,0,.743-.4,1.058,1.058,0,0,0,.272-.759C125.608,166.453,125.532,166.341,125.5,166.349Z" transform="translate(-100.117 -154.951)" fill="#263238"/><path d="M125.692,151.925c.064.116.507,0,1.046-.036s.99.056,1.042-.064-.068-.16-.26-.252a1.8,1.8,0,0,0-1.6.076C125.748,151.757,125.664,151.869,125.692,151.925Z" transform="translate(-100.98 -145.985)" fill="#263238"/><path d="M115.42,154.365c.1.088.4-.068.763-.132s.7-.04.759-.16c.024-.056-.044-.152-.2-.224a1.078,1.078,0,0,0-.651-.072,1.062,1.062,0,0,0-.575.3C115.4,154.209,115.376,154.321,115.42,154.365Z" transform="translate(-94.801 -147.388)" fill="#263238"/><path d="M112.241,145.9a4.7,4.7,0,0,0,3.885-.779c1.362-.91,3.015-1.481,3.426-1.234s.679,1.733,2.176,2c0,0,.264,2.875,1.394,2.628.8-.176.335-3.346,0-5.155a1.6,1.6,0,0,0-1.493-1.282l-2.1-.084-2.628.735-2.819.767-2.148.9Z" transform="translate(-92.716 -140.319)" fill="#263238"/><path d="M139.33,155.02c.04-.028,1.785-.946,2.108.958a1.452,1.452,0,0,1-1.669,1.781C139.753,157.708,139.33,155.02,139.33,155.02Z" transform="translate(-109.175 -147.999)" fill="#b78876"/><path d="M141.448,157.835a.58.58,0,0,0,.1.036.339.339,0,0,0,.248-.036.843.843,0,0,0,.256-.8,1.134,1.134,0,0,0-.172-.459.4.4,0,0,0-.3-.212.172.172,0,0,0-.18.124v.1c0,.008-.044-.028-.044-.108a.22.22,0,0,1,.056-.132.26.26,0,0,1,.176-.08.471.471,0,0,1,.4.236,1.122,1.122,0,0,1,.2.511.867.867,0,0,1-.343.906.363.363,0,0,1-.311,0C141.46,157.883,141.444,157.843,141.448,157.835Z" transform="translate(-110.394 -148.897)" fill="#aa6550"/><path d="M115,139.683a2.018,2.018,0,0,0,.2.256,1.641,1.641,0,0,0,.719.463,2.4,2.4,0,0,0,1.27.056,11.794,11.794,0,0,0,1.537-.487,4.2,4.2,0,0,1,1.629-.292,1.8,1.8,0,0,1,1.242.559,1.318,1.318,0,0,1,.379.831.547.547,0,0,1-.056.331,2.472,2.472,0,0,1-.024-.323,1.33,1.33,0,0,0-.4-.739,1.681,1.681,0,0,0-1.142-.467,4.249,4.249,0,0,0-1.553.3,9.984,9.984,0,0,1-1.569.479,2.452,2.452,0,0,1-1.354-.1,1.6,1.6,0,0,1-.735-.551A.553.553,0,0,1,115,139.683Z" transform="translate(-94.56 -138.93)" fill="#455a64"/><path d="M117.691,143.245a2.167,2.167,0,0,0-.3-.24,1.793,1.793,0,0,0-.946-.264A3.1,3.1,0,0,0,115,143.1a15.065,15.065,0,0,1-1.733.8,4.309,4.309,0,0,1-3.41-.371,3.746,3.746,0,0,1-.843-.647,1.122,1.122,0,0,1-.24-.3,6.72,6.72,0,0,0,1.15.819,4.333,4.333,0,0,0,3.278.307,18.587,18.587,0,0,0,1.717-.8,3.075,3.075,0,0,1,1.541-.327,1.737,1.737,0,0,1,1,.363A.731.731,0,0,1,117.691,143.245Z" transform="translate(-90.818 -140.668)" fill="#455a64"/><path d="M97.751,213.633l-9.272-7.9-3.059.691s3.223,6.7,5.555,9.156a5.48,5.48,0,0,0,6.106,1.749C100.882,215.992,97.751,213.633,97.751,213.633Z" transform="translate(-76.792 -178.607)" fill="#b78876"/><path d="M83.965,183.93H80.024a1,1,0,0,0-.914,1.258l3.965,7.719a.894.894,0,0,0,.8.487h4.792a.687.687,0,0,0,.523-1.018l-3.821-7.559A1.6,1.6,0,0,0,83.965,183.93Z" transform="translate(-72.981 -165.512)" fill="#455a64"/><path d="M83.734,185.1H79.793a.659.659,0,0,0-.591.958l3.869,7.551a.9.9,0,0,0,.8.487h4.752a.4.4,0,0,0,.347-.563l-3.825-7.555A1.569,1.569,0,0,0,83.734,185.1Z" transform="translate(-73.014 -166.215)" fill="#263238"/><path d="M85.447,193l-2.4.958-.511,1.933,1.154,2.875,4.221.623-1.238-1.266.156-1.106s1.2-.371,1.2-.551-.148-.8-.327-.819a9.1,9.1,0,0,0-1.386.435s1.465-1.162,1.426-1.35-.2-.663-.491-.719a17.081,17.081,0,0,0-2.663,1.066l-.4.875-.335-1.4S85.966,193.962,85.447,193Z" transform="translate(-75.062 -170.96)" fill="#b78876"/><path d="M90.439,202.134a.564.564,0,0,1-.084-.24,1.306,1.306,0,0,1,.4-1.11c.12-.1.212-.14.22-.128a2.607,2.607,0,0,0-.443.679A2.647,2.647,0,0,0,90.439,202.134Z" transform="translate(-79.751 -175.558)" fill="#aa6550"/><path d="M87.72,199.382a4.465,4.465,0,0,0,.1-.627,2.727,2.727,0,0,1,.12-.695.95.95,0,0,1,.615-.619c.571-.208,1.09-.375,1.465-.5a3.546,3.546,0,0,1,.619-.172,2.97,2.97,0,0,1-.587.256c-.371.144-.89.327-1.454.531a.95.95,0,0,0-.351.216.926.926,0,0,0-.2.327,2.846,2.846,0,0,0-.14.667,1.274,1.274,0,0,1-.184.615Z" transform="translate(-78.174 -173.225)" fill="#aa6550"/><path d="M86.3,200.836a1.01,1.01,0,0,1,0-.475c.044-.256.1-.455.14-.451a1.018,1.018,0,0,1,0,.475C86.393,200.641,86.333,200.84,86.3,200.836Z" transform="translate(-77.302 -175.111)" fill="#aa6550"/><path d="M86.18,187.993a.5.5,0,1,0,.146-.357A.5.5,0,0,0,86.18,187.993Z" transform="translate(-77.249 -167.65)" fill="#fafafa"/></g><g transform="translate(32.813 182.915)"><path d="M48.1,379.353A4.864,4.864,0,0,1,51,381.817a8.577,8.577,0,0,1,.89,3.781,15.15,15.15,0,0,1-2.2,7.447c-2.36-1.517-3.3-4.652-3.686-6.249-.6-2.548-.14-7.515,2.088-7.447" transform="translate(-40.595 -379.348)" fill="#21b586"/><path d="M62.827,414.095a4.157,4.157,0,0,1,.759-4.1,5.5,5.5,0,0,1,3.845-1.841,2.3,2.3,0,0,1,1.881.535,1.777,1.777,0,0,1,.288,1.777,3.594,3.594,0,0,1-1.13,1.489c-1.649,1.406-3.5,2.46-5.642,2.14" transform="translate(-50.697 -396.644)" fill="#21b586"/><path d="M59.23,426.08a2.484,2.484,0,0,1,0-.519c0-.371.032-.847.052-1.418a14.6,14.6,0,0,1,.8-4.62,8.929,8.929,0,0,1,2.675-3.825,6.162,6.162,0,0,1,1.2-.759c.152-.076.28-.112.359-.148s.128-.044.132-.036a8.3,8.3,0,0,0-4.2,4.832,15.721,15.721,0,0,0-.827,4.564c-.04.6-.076,1.078-.108,1.414A3.158,3.158,0,0,1,59.23,426.08Z" transform="translate(-48.673 -400.615)" fill="#263238"/><path d="M51.548,388.91a1.57,1.57,0,0,1,.056.22q.052.248.132.635c.112.551.264,1.354.439,2.344.355,2,.8,4.732,1.234,7.775s.759,5.806.966,7.811c.1,1,.18,1.813.228,2.376q.028.4.048.647a.731.731,0,0,1,0,.224,1.277,1.277,0,0,1-.04-.224c-.02-.164-.048-.375-.084-.643-.072-.579-.168-1.382-.288-2.364-.24-2-.587-4.76-1.014-7.8s-.859-5.77-1.178-7.767c-.16-.978-.288-1.777-.4-2.356-.04-.264-.072-.475-.1-.639A.891.891,0,0,1,51.548,388.91Z" transform="translate(-44.062 -385.092)" fill="#263238"/><path d="M41.541,418.451a9.707,9.707,0,0,0-6.257-6.277,2.052,2.052,0,0,0-2.2.284,2.006,2.006,0,0,0,.156,2.2,8.29,8.29,0,0,0,8.294,3.993" transform="translate(-32.813 -398.959)" fill="#21b586"/><path d="M40.67,418.22a2.682,2.682,0,0,1,.471.128,4.613,4.613,0,0,1,.539.2c.208.092.451.172.7.307a8.848,8.848,0,0,1,.8.443,10.388,10.388,0,0,1,.882.6,10.035,10.035,0,0,1,3.051,3.746,9.516,9.516,0,0,1,.4.986,7.363,7.363,0,0,1,.26.886,6.765,6.765,0,0,1,.144.751,4.528,4.528,0,0,1,.068.571,2.859,2.859,0,0,1,.008.487c-.044,0-.072-.7-.355-1.781a8.812,8.812,0,0,0-.272-.867,9.151,9.151,0,0,0-.4-.966,11.013,11.013,0,0,0-1.282-2,11.381,11.381,0,0,0-1.717-1.669,10.148,10.148,0,0,0-.859-.595,8.475,8.475,0,0,0-.8-.459C41.328,418.452,40.654,418.256,40.67,418.22Z" transform="translate(-37.532 -402.698)" fill="#263238"/></g></g></svg>