<svg xmlns="http://www.w3.org/2000/svg" width="267.892" height="184.767" viewBox="0 0 267.892 184.767"><g transform="translate(-30.406 -114.03)"><g transform="translate(30.406 114.03)"><path d="M73,363.654c8.565-7.011,9.672-18.794,8.46-29.2-.2-1.739-.161-3.589-1.126-5.05s-3.008-2.345-4.53-1.479c-1.238.718-1.708,2.271-2.339,3.577a10.379,10.379,0,0,1-3.824,4.27,3.993,3.993,0,0,1-3.6.619c-1.59-.705-1.937-2.766-2.067-4.5q-.371-4.846-.73-9.7a16.182,16.182,0,0,0-.953-5.105,5.414,5.414,0,0,0-3.713-3.348c-1.7-.322-3.713.792-3.911,2.519a15.946,15.946,0,0,0,.124,2.166,1.857,1.857,0,0,1-.941,1.8,2.183,2.183,0,0,1-1.993-.619,22.951,22.951,0,0,1-4.7-5.9,32.558,32.558,0,0,0-4.437-6.127,9.492,9.492,0,0,0-6.727-3.032c-2.525.062-5.081,1.826-5.514,4.332s1.207,4.858,2.94,6.7a39.091,39.091,0,0,0,8.788,6.943,3.212,3.212,0,0,1,1.479,1.337c.477,1.126-.538,2.364-1.659,2.841a20.734,20.734,0,0,1-4.066.792,3.979,3.979,0,0,0-3.206,2.308c-.569,1.857,1.083,3.565,2.655,4.66a33.974,33.974,0,0,0,10.4,4.845,11.357,11.357,0,0,1,3.837,1.467,3.216,3.216,0,0,1,1.343,3.589,3.325,3.325,0,0,1-3.484,1.659,23.944,23.944,0,0,1-3.973-1.133c-2.475-.7-5.57-.278-6.968,1.906a5.44,5.44,0,0,0-.192,4.9,12.693,12.693,0,0,0,3.008,4.06,33.832,33.832,0,0,0,15.236,8.812c5.755,1.454,10.984,1.547,16.387-.916" transform="translate(-30.406 -186.647)" fill="#ebebeb"/><path d="M75.244,372.429A75.449,75.449,0,0,0,71.2,358.388a153.47,153.47,0,0,0-7.618-16.2l-2.234-4.134c-.73-1.361-1.454-2.711-2.246-3.985a77.545,77.545,0,0,0-4.951-7.061c-1.689-2.172-3.379-4.177-4.951-6.034s-3.094-3.558-4.561-5.056a62.9,62.9,0,0,0-7.37-6.535c-.928-.706-1.671-1.238-2.172-1.572l-.576-.4a2.163,2.163,0,0,0-.2-.124s.062.056.186.148l.563.415c.5.359,1.238.891,2.141,1.609a65.358,65.358,0,0,1,7.3,6.584c1.442,1.5,2.952,3.206,4.536,5.068s3.255,3.868,4.951,6.04a77.711,77.711,0,0,1,4.951,7.049c.786,1.269,1.5,2.612,2.234,3.973l2.215,4.14a159.481,159.481,0,0,1,7.587,16.158,77.039,77.039,0,0,1,4.084,13.986" transform="translate(-31.898 -187.693)" fill="#e0e0e0"/><path d="M74.278,338.652a3.819,3.819,0,0,0,.1-.755c.05-.483.1-1.194.149-2.067.105-1.745.167-4.159.229-6.807s.161-5.074.3-6.807c.062-.873.13-1.572.179-2.061a4.869,4.869,0,0,0,.05-.755,3.756,3.756,0,0,0-.155.743c-.08.483-.173,1.188-.26,2.055-.192,1.745-.322,4.159-.384,6.807s-.105,5.031-.142,6.807c-.031.835-.049,1.535-.068,2.067A4,4,0,0,0,74.278,338.652Z" transform="translate(-47.121 -192.309)" fill="#e0e0e0"/><path d="M37.26,346.679h.91c.582,0,1.423,0,2.475.031,2.085.043,4.951.2,8.138.532s6.021.749,8.076,1.114c1.027.18,1.857.34,2.432.452l.656.13c.155,0,.235.037.235,0a.712.712,0,0,0-.223-.074l-.65-.179c-.563-.142-1.392-.334-2.42-.532-2.048-.415-4.907-.866-8.082-1.2a78.727,78.727,0,0,0-8.163-.452c-1.046,0-1.857,0-2.475.056l-.668.043a.809.809,0,0,0-.241.08Z" transform="translate(-33.019 -202.638)" fill="#e0e0e0"/><path d="M93.46,371.126a2.057,2.057,0,0,0,.124-.291c.087-.217.186-.5.316-.835.272-.73.619-1.8,1.077-3.094.873-2.642,1.968-6.331,3.131-10.421s2.222-7.779,3.051-10.434c.415-1.3.749-2.364,1-3.144.111-.347.2-.619.266-.854a1.412,1.412,0,0,0,.08-.3,1.238,1.238,0,0,0-.13.285c-.08.223-.186.5-.316.842-.272.73-.619,1.795-1.071,3.094-.879,2.642-1.974,6.331-3.131,10.421s-2.2,7.791-3.057,10.434c-.408,1.3-.749,2.364-.99,3.138-.111.353-.2.619-.272.86A1.6,1.6,0,0,0,93.46,371.126Z" transform="translate(-54.44 -200.828)" fill="#e0e0e0"/><path d="M43.72,377.79a1.056,1.056,0,0,0,.3.093l.9.21,3.3.755c2.785.619,6.622,1.566,10.861,2.605s8.082,1.943,10.879,2.537c1.4.3,2.531.526,3.317.668l.9.161a1.79,1.79,0,0,0,.322.043,1.168,1.168,0,0,0-.309-.093l-.9-.21-3.3-.755c-2.785-.619-6.622-1.566-10.854-2.605s-8.082-1.943-10.879-2.537c-1.4-.3-2.531-.526-3.317-.668l-.91-.167a1.98,1.98,0,0,0-.322-.037Z" transform="translate(-35.481 -214.564)" fill="#e0e0e0"/><rect width="46.723" height="31.493" transform="matrix(0.958, -0.288, 0.288, 0.958, 79.152, 13.633)" fill="#fff"/><path d="M212.012,144.335s-.068-.192-.179-.551-.278-.9-.5-1.6c-.427-1.4-1.058-3.447-1.857-6.058-1.6-5.242-3.88-12.76-6.665-21.913l.161.087-44.73,13.509h0l.111-.2,9.06,30.162-.186-.1,32.229-9.623,9.227-2.729,2.475-.724.619-.186.223-.056-.2.068-.619.2-2.426.743-9.171,2.8-32.279,9.784-.142.043-.043-.142c-2.766-9.19-5.848-19.407-9.085-30.156l-.043-.155.149-.043h0L202.9,114.067l.124-.037.037.124c2.741,9.2,4.988,16.758,6.56,22.025.767,2.612,1.374,4.654,1.782,6.058.2.681.353,1.207.464,1.578S212.012,144.335,212.012,144.335Z" transform="translate(-79.04 -114.03)" fill="#e0e0e0"/><path d="M203.062,114.3a.813.813,0,0,1-.062.136l-.21.384c-.2.353-.483.842-.829,1.46l-3.125,5.365-10.483,17.779-.074.118-.124-.049-1.368-.526L166.631,131.1l-6.1-2.413-1.646-.675-.427-.179a.507.507,0,0,1-.142-.074.433.433,0,0,1,.155.043l.433.149,1.677.619,6.127,2.321,20.187,7.773,1.374.532-.2.068c4.146-6.962,7.872-13.2,10.57-17.736l3.212-5.31c.371-.619.668-1.083.879-1.436l.241-.365C203.025,114.337,203.056,114.293,203.062,114.3Z" transform="translate(-79.162 -114.133)" fill="#e0e0e0"/><path d="M410.468,308.65s-2.9-2.871-8.559,4.3a106.584,106.584,0,0,0-8.15,11.442s-1.411,1.46-2.339.136-1.887-4.74-3.954-4.567-3.255,2.3-3.534,5.7-1.151,10.83-1.238,11.5-.619,1.541-1.417.743-4.815-7.593-7.94-5.5S371,344.11,371.073,345.156s-.217,1.442-.736,1.59-1.665-2.265-2.9-4.152-2.983-3.874-4.678-2.506-3.5,8.094.786,20.453l2.358,5.57,6.034.86c13.039,1.046,19.1-2.376,20-4.363s-1.454-3.187-3.6-3.9-4.765-1.238-4.747-1.764.322-.91,1.355-1.108,10.52-1.857,11.758-5.39-6.343-5.749-7.315-6.306-.254-1.318.365-1.559,7.6-2.958,10.824-4.072,5-2.735,4.635-4.852-3.9-2.11-5.415-2.686-.452-2.3-.452-2.3a106.155,106.155,0,0,0,9.078-10.737c5.526-7.278,1.925-9.4,1.925-9.4" transform="translate(-156.376 -187.995)" fill="#ebebeb"/><path d="M405.736,319.32a.916.916,0,0,1-.1.155l-.316.446c-.3.4-.712.959-1.238,1.677-1.083,1.454-2.661,3.546-4.629,6.12-3.93,5.149-9.425,12.216-15.527,19.989l-15.607,19.933-4.709,6.058-1.287,1.64-.34.421c-.08.093-.118.142-.124.136a.916.916,0,0,1,.1-.155l.316-.439,1.238-1.683c1.077-1.454,2.661-3.546,4.623-6.12,3.93-5.149,9.431-12.216,15.539-19.989s11.6-14.815,15.6-19.933c1.974-2.543,3.583-4.6,4.709-6.052.545-.7.978-1.238,1.281-1.646l.347-.421C405.686,319.363,405.73,319.314,405.736,319.32Z" transform="translate(-156.743 -192.278)" fill="#e0e0e0"/><path d="M405.67,335.09a7.578,7.578,0,0,1,.229,1.621c.093,1,.173,2.395.229,3.936s.08,2.816.111,3.936a9.781,9.781,0,0,1,0,1.634,7.389,7.389,0,0,1-.223-1.621c-.08-1.009-.149-2.4-.2-3.936s-.093-2.816-.136-3.936A9.435,9.435,0,0,1,405.67,335.09Z" transform="translate(-173.429 -198.289)" fill="#e0e0e0"/><path d="M407.45,352.747a62.913,62.913,0,0,1,6.393-.7c3.534-.291,6.411-.458,6.417-.371a63.807,63.807,0,0,1-6.393.693C410.334,352.666,407.462,352.833,407.45,352.747Z" transform="translate(-174.12 -204.602)" fill="#e0e0e0"/><path d="M390.86,372.7a10.011,10.011,0,0,1,1.646.266c1.015.192,2.407.458,3.954.705s2.952.433,3.973.563a10.454,10.454,0,0,1,1.652.266,7.772,7.772,0,0,1-1.671-.037c-1.033-.074-2.475-.223-4-.477s-2.952-.551-3.954-.8A7.8,7.8,0,0,1,390.86,372.7Z" transform="translate(-167.796 -212.624)" fill="#e0e0e0"/><path d="M385.62,356.48a7.154,7.154,0,0,1,.619,1.417c.328.9.767,2.135,1.238,3.509s.866,2.624,1.145,3.54a8.209,8.209,0,0,1,.384,1.491,6.707,6.707,0,0,1-.619-1.423c-.334-.891-.767-2.129-1.238-3.5s-.866-2.63-1.145-3.54A7.075,7.075,0,0,1,385.62,356.48Z" transform="translate(-165.799 -206.442)" fill="#e0e0e0"/><path d="M368.81,371.64a12.9,12.9,0,0,1,.755,1.826c.427,1.145,1,2.729,1.609,4.487s1.145,3.354,1.522,4.511a11.758,11.758,0,0,1,.538,1.906,11.981,11.981,0,0,1-.755-1.857c-.427-1.139-1-2.723-1.609-4.48s-1.151-3.354-1.522-4.518a11.617,11.617,0,0,1-.538-1.875Z" transform="translate(-159.392 -212.22)" fill="#e0e0e0"/><path d="M375.93,391.67a14.708,14.708,0,0,1,2.1.272c1.287.2,3.094.483,5.044.743s3.763.458,5.056.619a15.939,15.939,0,0,1,2.1.279,12.612,12.612,0,0,1-2.116-.049c-1.306-.087-3.094-.248-5.081-.514s-3.763-.576-5.044-.829a12.989,12.989,0,0,1-2.055-.52Z" transform="translate(-162.106 -219.855)" fill="#e0e0e0"/><rect width="48.016" height="35.088" transform="translate(225.31 107.764) rotate(-88.25)" fill="#f5f5f5"/><rect width="48.016" height="35.088" transform="translate(218.853 114.144) rotate(-88.25)" fill="#fff"/><path d="M419.021,269.873a2.272,2.272,0,0,1,0-.235v-.674c0-.619.031-1.485.062-2.624.062-2.3.149-5.631.26-9.858.241-8.447.582-20.422.984-34.6l.142.149-35.07-1.058h0l.167-.155c-.563,17.946-1.077,34.525-1.5,47.991l-.13-.136,25.471.848,7.086.248,1.857.074.65.031h-.619l-1.857-.043-7.055-.179-25.552-.712h-.13v-.13c.4-13.472.9-30.069,1.436-48v-.161h.167l35.064,1.089h.149v.149c-.464,14.233-.854,26.227-1.132,34.692-.142,4.208-.26,7.537-.334,9.821-.043,1.126-.074,1.993-.1,2.593a3.888,3.888,0,0,1-.031.662A.3.3,0,0,0,419.021,269.873Z" transform="translate(-165.102 -154.669)" fill="#e0e0e0"/><path d="M410.5,238.512c0,.093-3.818.043-8.521-.1s-8.521-.334-8.521-.421,3.824-.043,8.528.1S410.5,238.426,410.5,238.512Z" transform="translate(-168.787 -161.262)" fill="#e0e0e0"/><path d="M419.467,245.544c0,.087-5.879,0-13.132-.241s-13.132-.477-13.126-.563,5.879,0,13.138.241S419.474,245.451,419.467,245.544Z" transform="translate(-168.692 -163.839)" fill="#e0e0e0"/><path d="M419.254,252.574c0,.087-5.885,0-13.138-.241s-13.126-.477-13.126-.563,5.885,0,13.138.241S419.254,252.481,419.254,252.574Z" transform="translate(-168.608 -166.518)" fill="#e0e0e0"/><path d="M419.037,259.6c0,.087-5.879,0-13.132-.241s-13.126-.476-13.126-.563,5.885,0,13.138.241S419.044,259.53,419.037,259.6Z" transform="translate(-168.528 -169.198)" fill="#e0e0e0"/><path d="M418.824,266.634c0,.087-5.885,0-13.132-.241s-13.132-.477-13.132-.563,5.885,0,13.138.241S418.824,266.542,418.824,266.634Z" transform="translate(-168.444 -171.877)" fill="#e0e0e0"/><path d="M418.614,273.664c0,.087-5.885,0-13.138-.241s-13.126-.476-13.126-.563,5.885,0,13.138.241S418.614,273.553,418.614,273.664Z" transform="translate(-168.364 -174.557)" fill="#e0e0e0"/><path d="M418.4,280.694c0,.087-5.885,0-13.132-.241s-13.132-.477-13.126-.563,5.879,0,13.132.241S418.4,280.6,418.4,280.694Z" transform="translate(-168.284 -177.236)" fill="#e0e0e0"/><path d="M406.036,287.341c0,.087-3.162.062-7.061-.056s-7.055-.291-7.055-.378,3.162-.062,7.061.056S406.036,287.249,406.036,287.341Z" transform="translate(-168.2 -179.904)" fill="#e0e0e0"/><rect width="29.667" height="37.106" transform="translate(139.062 49.802) rotate(-68.29)" fill="#fff"/><path d="M300.508,163.662l-.167-.062-.483-.186L298,162.671l-7.073-2.816-24.915-9.9.074-.031L255.122,177.48h0l-.037-.087,34.469,13.738h-.068c3.317-8.3,6.071-15.186,7.989-19.995.965-2.4,1.72-4.289,2.234-5.57l.619-1.467.2-.507-.192.5c-.13.334-.322.823-.576,1.46-.507,1.287-1.238,3.175-2.2,5.57-1.912,4.815-4.654,11.715-7.952,20.038v.049h-.05l-34.519-13.658h-.062v-.062h0c3.967-9.951,7.711-19.357,10.978-27.557v-.056h.049l24.976,9.976,7.036,2.822,1.857.743.477.192Z" transform="translate(-116.005 -127.695)" fill="#e0e0e0"/><rect width="25.929" height="34.5" transform="translate(140.917 48.568) rotate(-68.29)" fill="#ebebeb"/><path d="M258.32,186.15l17.16-10.52,3.206,12.129,6.7-3.131,4.994,14.283Z" transform="translate(-117.278 -137.509)" fill="#e0e0e0"/><path d="M299.962,176.708a2.711,2.711,0,1,1-.026-2.078,2.717,2.717,0,0,1,.026,2.078Z" transform="translate(-131.152 -136.501)" fill="#e0e0e0"/><path d="M118.216,226a1.615,1.615,0,0,0,.736.118,1.312,1.312,0,0,0,.792-.39,7.824,7.824,0,0,0,.65-1.071l4.016-7.005,1.337-2.314.712-1.238a4.293,4.293,0,0,0,.322-.619,1.126,1.126,0,0,0,0-.656,1.083,1.083,0,0,0-.353-.563,5.977,5.977,0,0,0-.619-.384l-1.38-.767-2.871-1.609-12.785-7.172a1.157,1.157,0,0,0-1.5.371l-.959,1.646c-.619,1.089-1.238,2.172-1.857,3.23l-3.589,6.133c-.142.241-.285.483-.421.724a1.238,1.238,0,0,0-.2.705,1.126,1.126,0,0,0,.254.668,1.9,1.9,0,0,0,.619.427l2.7,1.535,4.839,2.748,7.005,4,1.9,1.1.489.291c.111.068.167.105.161.111l-.173-.08-.507-.266-1.925-1.052-7.061-3.911-4.839-2.741-2.711-1.516a2.21,2.21,0,0,1-.7-.489,1.423,1.423,0,0,1-.316-.842,1.479,1.479,0,0,1,.235-.866c.136-.241.278-.483.421-.724l3.546-6.12,1.857-3.23.972-1.665a1.479,1.479,0,0,1,1.925-.477l12.773,7.2,2.871,1.621,1.368.78a5.657,5.657,0,0,1,.681.408,1.374,1.374,0,0,1,.439.705,1.479,1.479,0,0,1,0,.8,4.571,4.571,0,0,1-.353.675l-.724,1.238-1.349,2.308c-1.727,2.921-3.125,5.291-4.1,6.956a8.236,8.236,0,0,1-.693,1.071,1.38,1.38,0,0,1-.854.39,1.238,1.238,0,0,1-.569-.093A.836.836,0,0,1,118.216,226Z" transform="translate(-56.924 -147.51)" fill="#e0e0e0"/><path d="M121.166,218.652l1.559,2.766-3.218.062-3.218.056,1.658-2.828,1.658-2.828Z" transform="translate(-63.142 -152.851)" fill="#e0e0e0"/></g><g transform="translate(33.911 297.634)"><path d="M300.458,410.893c0,.093-59.192.167-132.184.167s-132.2-.062-132.2-.167,59.18-.173,132.2-.173S300.458,410.813,300.458,410.893Z" transform="translate(-36.07 -410.72)" fill="#263238"/></g><g transform="translate(61.389 143.95)"><path d="M130.3,318.208,111.62,299.438l9.394-17.253c9.394-12.03,29.284-11.257,29.284-11.257a114.028,114.028,0,0,1,29.327,1.8c15.8,3.094,14.524,13.528,14.524,13.528l2.116,38.721,2.271,31.53-58.264,1.176-9.97-39.451" transform="translate(-92.344 -203.653)" fill="#21b586"/><path d="M149.818,368.29l-52.187.619a16.962,16.962,0,0,1-15.539-24.2l22.315-41.382,20.329,13.738-13.868,28.758,42.242.755Z" transform="translate(-80.471 -216.104)" fill="#21b586"/><path d="M242,285.66l41.877,64.657-24.432,1.6s-14.592-22.99-14.264-22.52C245.763,330.26,242,285.66,242,285.66Z" transform="translate(-142.039 -209.369)" fill="#21b586"/><path d="M146.05,313.222a1.12,1.12,0,0,1,.056-.334c.062-.248.13-.557.223-.941.192-.811.477-1.987.767-3.447s.619-3.218.823-5.173a27.089,27.089,0,0,0,0-6.38,16.758,16.758,0,0,0-2.16-5.947,24.066,24.066,0,0,0-3.094-4.19,29.463,29.463,0,0,0-2.537-2.475,12.042,12.042,0,0,1-.978-.854,1.657,1.657,0,0,1,.285.18c.173.13.452.309.774.576a24.87,24.87,0,0,1,2.624,2.395,23.239,23.239,0,0,1,3.193,4.189,16.708,16.708,0,0,1,2.228,6.058,26.653,26.653,0,0,1-.049,6.455,51.8,51.8,0,0,1-.891,5.186c-.322,1.467-.619,2.636-.873,3.441-.111.4-.21.712-.278.922A1.855,1.855,0,0,1,146.05,313.222Z" transform="translate(-102.837 -208.538)" fill="#263238"/><path d="M140.677,335.14a5.2,5.2,0,0,1-.359.934c-.248.619-.619,1.448-1.1,2.475-.947,2.1-2.29,4.982-3.837,8.138s-3.008,5.984-4.091,8.045c-.545,1.015-.99,1.857-1.306,2.395a6.472,6.472,0,0,1-.52.86,6.187,6.187,0,0,1,.408-.916c.316-.619.724-1.448,1.238-2.444l4-8.045c1.516-3.138,2.9-5.972,3.923-8.094.483-1,.879-1.826,1.188-2.475a5.85,5.85,0,0,1,.446-.873Z" transform="translate(-99.148 -228.228)" fill="#263238"/><path d="M161.2,394.338v-.427c.031-.3.074-.712.124-1.238.124-1.1.3-2.667.514-4.641.458-4,1.114-9.635,1.857-16.275l.149.161H148.426l-26.926-.043-8.169-.049-2.222-.031h-.78a.827.827,0,0,1,.2,0h.582l2.222-.031,8.169-.049,26.969-.043h15.582v.161c-.817,6.634-1.5,12.265-2,16.263-.248,1.968-.452,3.534-.619,4.635q-.1.78-.167,1.238l-.049.316C161.211,394.3,161.2,394.338,161.2,394.338Z" transform="translate(-91.852 -242.152)" fill="#263238"/><path d="M124.9,368.28a13.177,13.177,0,0,1-1.04-1.306,20.311,20.311,0,0,0-6.077-5.13,15.836,15.836,0,0,1-1.46-.8,5.774,5.774,0,0,1,1.566.619,16.783,16.783,0,0,1,6.151,5.192,6.052,6.052,0,0,1,.86,1.43Z" transform="translate(-94.135 -238.1)" fill="#263238"/><path d="M247.787,346.672a2.978,2.978,0,0,1-.087-.538c-.043-.378-.1-.891-.173-1.541-.142-1.337-.334-3.274-.538-5.669-.427-4.8-.916-11.43-1.349-18.757s-.736-13.973-.91-18.782c-.087-2.407-.149-4.332-.173-5.7,0-.65,0-1.163-.031-1.547a5.127,5.127,0,0,1,0-.538,3.093,3.093,0,0,1,.056.538c0,.377.049.9.087,1.547.068,1.374.161,3.311.279,5.687.229,4.808.569,11.442,1,18.776s.891,13.955,1.238,18.757c.186,2.37.334,4.332.439,5.681.05.619.087,1.163.118,1.541a3.013,3.013,0,0,1,.043.545Z" transform="translate(-142.999 -212.395)" fill="#263238"/><path d="M170.392,312.158a6.025,6.025,0,0,1,.068-.848c.074-.588.167-1.374.285-2.339.272-2.042.619-4.839,1.077-8.082l.235.149-4,2.8-4.072,2.834-.291.2.049-.353c.5-3.212.916-5.984,1.238-8.045.161-.947.285-1.727.384-2.308a4.734,4.734,0,0,1,.173-.823,4.728,4.728,0,0,1-.074.842c-.074.582-.167,1.361-.291,2.321-.278,2.03-.668,4.808-1.114,8.045l-.235-.149,4.066-2.847,4.01-2.791.291-.2-.049.353c-.477,3.23-.891,6.028-1.188,8.045-.155.959-.278,1.745-.371,2.327A4.947,4.947,0,0,1,170.392,312.158Z" transform="translate(-112.191 -213.062)" fill="#e0e0e0"/><path d="M202.292,321.178a4.891,4.891,0,0,1-.619-.588c-.4-.433-.947-1.009-1.615-1.714l-5.526-5.99.266-.093c-.13,1.516-.266,3.162-.408,4.87s-.291,3.4-.421,4.951l-.031.359-.235-.266-5.378-6.065-1.535-1.77a4.145,4.145,0,0,1-.52-.662,5.438,5.438,0,0,1,.619.619l1.6,1.708,5.458,5.984-.266.093c.13-1.541.266-3.212.415-4.951s.285-3.354.415-4.87l.031-.353.235.26,5.446,6.071,1.553,1.776a5.221,5.221,0,0,1,.52.631Z" transform="translate(-120.797 -219.576)" fill="#e0e0e0"/><path d="M227.06,325.22a4.3,4.3,0,0,1-.421.743l-1.238,1.993-4.419,6.857-.149-.235,4.8-.829,4.889-.823.353-.062-.167.266-4.518,6.721-1.361,1.943a5.359,5.359,0,0,1-.507.675,5.743,5.743,0,0,1,.421-.73l1.238-1.98,4.425-6.807.155.235-4.889.848-4.821.817-.353.056.2-.291,4.511-6.807,1.324-1.949A6.883,6.883,0,0,1,227.06,325.22Z" transform="translate(-133.844 -224.447)" fill="#e0e0e0"/><path d="M201.877,344.6a4.429,4.429,0,0,1-.421.736l-1.238,2-4.412,6.851-.155-.235,4.815-.829,4.9-.829.353-.056-.2.291-4.518,6.727-1.33,1.931a4.455,4.455,0,0,1-.507.668,6.319,6.319,0,0,1,.421-.73c.322-.5.743-1.157,1.238-1.974l4.425-6.807.155.235-4.889.848-4.821.811-.353.062.2-.3,4.511-6.807c.545-.8.99-1.46,1.33-1.949a5.653,5.653,0,0,1,.507-.644Z" transform="translate(-124.251 -231.834)" fill="#e0e0e0"/><path d="M256.315,325a6,6,0,0,1-.421.736l-1.238,2-4.412,6.851-.155-.235,4.815-.829,4.9-.829.353-.056-.2.291-4.524,6.727c-.545.792-.99,1.442-1.331,1.925a4.276,4.276,0,0,1-.507.675,5.959,5.959,0,0,1,.427-.73l1.238-1.974,4.425-6.807.155.235-4.889.842-4.821.817-.347.062.192-.3,4.511-6.807,1.331-1.949A4.183,4.183,0,0,1,256.315,325Z" transform="translate(-145.005 -224.363)" fill="#e0e0e0"/><path d="M281.693,370.2a5.053,5.053,0,0,1-.619-.557l-1.7-1.634-5.823-5.706.26-.105c-.049,1.522-.1,3.168-.155,4.883s-.124,3.416-.179,4.951v.359l-.254-.254-5.669-5.786-1.621-1.689a5.361,5.361,0,0,1-.557-.619,5.377,5.377,0,0,1,.619.557l1.683,1.628,5.755,5.706-.266.105c.049-1.547.105-3.218.161-4.951s.124-3.36.179-4.883v-.353l.248.247,5.737,5.792,1.64,1.7A4.954,4.954,0,0,1,281.693,370.2Z" transform="translate(-150.951 -238.409)" fill="#e0e0e0"/><path d="M128.865,308.94a5.5,5.5,0,0,1-.421.736l-1.238,2-4.412,6.857-.155-.235,4.815-.835,4.9-.823.353-.062-.2.3-4.524,6.721-1.324,1.931a5.051,5.051,0,0,1-.507.668,4.731,4.731,0,0,1,.421-.724l1.238-1.98c1.12-1.714,2.655-4.066,4.425-6.807l.155.235-4.889.848-4.821.817-.347.056.192-.291c1.813-2.723,3.373-5.075,4.511-6.807l1.331-1.949A5.2,5.2,0,0,1,128.865,308.94Z" transform="translate(-96.426 -218.242)" fill="#e0e0e0"/><path d="M93.35,382.942a4.542,4.542,0,0,1,.569.619l1.51,1.813,5.13,6.331-.272.074c.223-1.5.458-3.138.712-4.839s.5-3.379.73-4.907l.05-.353.223.285,4.988,6.386,1.417,1.857a4.949,4.949,0,0,1,.483.687,5.482,5.482,0,0,1-.563-.619l-1.485-1.807L101.8,382.15l.272-.068c-.223,1.529-.464,3.187-.718,4.907s-.5,3.329-.724,4.833l-.05.353-.223-.278-5.05-6.4-1.442-1.857a6.446,6.446,0,0,1-.514-.7Z" transform="translate(-85.38 -245.967)" fill="#e0e0e0"/><path d="M174.152,335.3a5.332,5.332,0,0,1-.842.111l-2.352.2-8.132.619.1-.26,3.565,3.342,3.608,3.4.26.248H170l-8.088.446-2.339.1a4.869,4.869,0,0,1-.842,0,5.8,5.8,0,0,1,.835-.105l2.333-.186,8.082-.557-.093.26-3.62-3.391-3.552-3.354-.26-.248h.353l8.138-.489,2.352-.118A5.66,5.66,0,0,1,174.152,335.3Z" transform="translate(-110.3 -228.286)" fill="#e0e0e0"/><path d="M161.49,384.823a6.873,6.873,0,0,1,.582.619l1.541,1.782,5.266,6.226-.272.074c.192-1.51.4-3.144.619-4.846s.439-3.391.619-4.92l.05-.359.223.278,5.124,6.281,1.454,1.857a6.184,6.184,0,0,1,.5.681,5.072,5.072,0,0,1-.576-.619l-1.522-1.776-5.2-6.188.266-.08c-.192,1.535-.4,3.193-.619,4.92s-.433,3.342-.619,4.852l-.05.353-.223-.272-5.18-6.3L162,385.529a4.405,4.405,0,0,1-.507-.706Z" transform="translate(-111.352 -246.623)" fill="#e0e0e0"/><path d="M112.4,348.735a5.028,5.028,0,0,1-.842.111l-2.345.2-8.132.619.093-.266,3.571,3.348,3.608,3.4.26.248h-.359l-8.088.446-2.339.1a4.864,4.864,0,0,1-.823,0,4.854,4.854,0,0,1,.835-.105l2.333-.186,8.082-.563-.093.266-3.62-3.391-3.558-3.354-.254-.248h.353l8.138-.5,2.352-.111A5.52,5.52,0,0,1,112.4,348.735Z" transform="translate(-86.771 -233.407)" fill="#e0e0e0"/><path d="M146.412,384.567a5,5,0,0,1-.842.105l-2.352.2-8.132.619.1-.266,3.565,3.348,3.608,3.4.26.248h-.353l-8.094.439-2.339.105a4.869,4.869,0,0,1-.842,0,4.854,4.854,0,0,1,.835-.105l2.333-.186,8.082-.563-.093.266-3.62-3.391-3.552-3.342-.26-.241h.353l8.138-.5,2.358-.111A4.676,4.676,0,0,1,146.412,384.567Z" transform="translate(-99.727 -247.066)" fill="#e0e0e0"/><path d="M223.222,293.406a5.333,5.333,0,0,1-.842.111l-2.352.2-8.125.619.093-.26,3.565,3.342,3.608,3.4.26.248h-.353l-8.094.446-2.339.1a4.863,4.863,0,0,1-.842,0,4.854,4.854,0,0,1,.835-.105l2.333-.186,8.088-.557-.1.26-3.608-3.385-3.552-3.354-.26-.248h.353l8.138-.5,2.358-.111A5.563,5.563,0,0,1,223.222,293.406Z" transform="translate(-129.004 -212.319)" fill="#e0e0e0"/><path d="M194.51,382.164s10.409-3,13.856-3.88c1.343-.34,7.092,2.692,11.065,5.217,0,0,5.471,3.243,5.031,4.239-.489,1.1-2.475.879-5.724-.619,0,0,1.126,3.261-1.083,3.187,0,0,1.1,3.527-.972,3.893s-2.55-4.134-4.369-4.375-5.57-.489-5.57-.489-3.138,5.2-5.57,5.57-8.045-.291-8.045-.291Z" transform="translate(-123.412 -244.663)" fill="#ffbe9d"/><path d="M224.07,385.73a17.706,17.706,0,0,1,2.909,1.64,17.281,17.281,0,0,1,2.735,1.918,34.036,34.036,0,0,1-5.644-3.558Z" transform="translate(-135.205 -247.511)" fill="#eb996e"/><path d="M223.08,389a46.379,46.379,0,0,1,6.758,3.094,21.658,21.658,0,0,1-3.453-1.411,21.2,21.2,0,0,1-3.3-1.683Z" transform="translate(-134.828 -248.758)" fill="#eb996e"/><path d="M224.88,396.81a17.327,17.327,0,0,1,4.654.619,17.439,17.439,0,0,1-4.654-.619Z" transform="translate(-135.514 -251.734)" fill="#eb996e"/><path d="M168.193,192.468a2.135,2.135,0,0,1-3.014,2.525c-1.411-.712-1.59-2.661-1.312-4.214s.8-3.218.155-4.66a10.642,10.642,0,0,0-2.426-2.667,6.844,6.844,0,0,1-1.9-5.792,5.749,5.749,0,0,1,3.948-4.518c2.073-.576,4.629.062,6.188-1.442,1.12-1.089,1.188-2.865,2.055-4.165,1.343-2.017,4.183-2.339,6.584-2.011s4.839,1.1,7.191.514c1.962-.489,3.571-1.857,5.415-2.7a10.6,10.6,0,0,1,13.8,14.555,6.808,6.808,0,0,1-3.286,3.249" transform="translate(-110.641 -162.379)" fill="#263238"/><path d="M184.975,251.326h0a11.925,11.925,0,0,0,11.9-12.092l-.155-11.374s9.555-.959,10.186-10.427.179-31.32.179-31.32h0a33,33,0,0,0-33.306,2.333l-1.46,1.009.712,50.089a11.925,11.925,0,0,0,11.944,11.783Z" transform="translate(-115.48 -170.115)" fill="#ffbe9d"/><path d="M223.687,214.257a1.417,1.417,0,0,1,0-2.816.476.476,0,0,1,.229,0,1.417,1.417,0,0,1,0,2.816A.711.711,0,0,1,223.687,214.257Z" transform="translate(-134.581 -181.074)" fill="#263238"/><path d="M224.5,210.148c-.155.161-1.046-.619-2.352-.687s-2.29.545-2.42.371.093-.365.526-.656a3.212,3.212,0,0,1,3.812.254C224.455,209.777,224.579,210.111,224.5,210.148Z" transform="translate(-133.536 -180.022)" fill="#263238"/><path d="M201.736,211.429a1.38,1.38,0,1,1-1.918.347A1.38,1.38,0,0,1,201.736,211.429Z" transform="translate(-125.867 -180.981)" fill="#263238"/><path d="M201.508,210.758c-.161.161-1.052-.619-2.352-.687s-2.29.545-2.426.371c-.068-.08.1-.365.526-.656a3.212,3.212,0,0,1,3.812.254C201.459,210.387,201.583,210.69,201.508,210.758Z" transform="translate(-124.779 -180.255)" fill="#263238"/><path d="M211.887,222.516a6.467,6.467,0,0,1,2.135-.334c.34,0,.619-.08.65-.26a1.931,1.931,0,0,0-.192-.99c-.291-.885-.582-1.776-.891-2.711-1.238-3.855-2.048-7.03-1.857-7.092s1.343,3.014,2.562,6.869c.285.941.563,1.857.829,2.723a2.191,2.191,0,0,1,.111,1.43.885.885,0,0,1-.619.514,2.024,2.024,0,0,1-.588.043A6.134,6.134,0,0,1,211.887,222.516Z" transform="translate(-130.492 -180.96)" fill="#263238"/><path d="M204.93,231.49a24.444,24.444,0,0,0,6.3,2.209,3.614,3.614,0,0,1-4.332,1.2C204.107,233.705,204.93,231.49,204.93,231.49Z" transform="translate(-127.867 -188.721)" fill="#fff"/><path d="M204.316,252.893a22.087,22.087,0,0,1-12.166-4.183s2.55,6.974,12.049,6.64Z" transform="translate(-123.039 -195.285)" fill="#eb996e"/><path d="M205.687,186.977s-5.724,2.909-13.305-.693c-4.951-2.364-10.749-3.459-12-2.438s-1.417,6.1-6.269,7.674c0,0,.526,9.691-3.348,9.419s-1.745-15.329-1.745-15.329l9.363-4.8,10.279-2.147,9.747,1.182,7.562,1.912Z" transform="translate(-114 -168.585)" fill="#263238"/><path d="M169.306,209.369c-.155-.08-6.405-2.284-6.547,4.208s6.4,5.3,6.411,5.112S169.306,209.369,169.306,209.369Z" transform="translate(-111.835 -180.128)" fill="#ffbe9d"/><path d="M168.247,217.462a1.9,1.9,0,0,1-.309.161,1.126,1.126,0,0,1-.848,0,2.782,2.782,0,0,1-1.238-2.537,3.849,3.849,0,0,1,.353-1.615,1.318,1.318,0,0,1,.873-.848.619.619,0,0,1,.662.328c.08.179.037.309.068.322s.142-.105.1-.371a.743.743,0,0,0-.248-.415.86.86,0,0,0-.619-.179,1.591,1.591,0,0,0-1.207.978,3.93,3.93,0,0,0-.433,1.8,2.924,2.924,0,0,0,1.584,2.84,1.238,1.238,0,0,0,1.04-.148C168.247,217.623,168.247,217.475,168.247,217.462Z" transform="translate(-112.843 -181.408)" fill="#eb996e"/><path d="M168,176.711a3.571,3.571,0,0,1,4.01,1.5,10.063,10.063,0,0,0-1.857-1.114A10.522,10.522,0,0,0,168,176.711Z" transform="translate(-113.834 -167.787)" fill="#263238"/><path d="M174.15,170.52c.118,0-.062,1.368.161,2.989a12.816,12.816,0,0,0,.91,2.828,2.763,2.763,0,0,1-.545-.712,6.078,6.078,0,0,1-.681-2.067,6.751,6.751,0,0,1,.155-3.039Z" transform="translate(-116.079 -165.482)" fill="#263238"/><path d="M217.4,205.441c-.037-.074.241-.3.767-.514a5.854,5.854,0,0,1,4.332.043c.52.223.8.452.761.526-.08.173-1.331-.316-2.933-.316S217.472,205.633,217.4,205.441Z" transform="translate(-132.661 -178.446)" fill="#263238"/><path d="M194,203.263c-.037-.074.241-.3.767-.514a5.8,5.8,0,0,1,2.172-.39,5.658,5.658,0,0,1,2.173.434c.519.222.791.451.76.532a28.611,28.611,0,0,0-2.939-.322C195.322,203,194.085,203.436,194,203.263Z" transform="translate(-123.742 -177.618)" fill="#263238"/><path d="M215.538,207.6a1.776,1.776,0,0,1,0,.384c0,.272,0,.619.031,1.046s0,1,.037,1.621a5.984,5.984,0,0,0,.309,2.1,5.483,5.483,0,0,0,3.923,3.571,5.187,5.187,0,0,0,1.584.136,5.094,5.094,0,0,0,1.615-.34,5.446,5.446,0,0,0,2.673-2.16,5.569,5.569,0,0,0,.866-3.168q0-1.662,0-3.193l.149.149-8.045-.074-2.333-.043H215.5a6.234,6.234,0,0,1,.8-.037l2.3-.043,8.132-.074h.2v3.348a5.842,5.842,0,0,1-.91,3.342,5.755,5.755,0,0,1-2.834,2.284,5.364,5.364,0,0,1-1.714.353,5.52,5.52,0,0,1-1.665-.155,5.675,5.675,0,0,1-4.072-3.787,6.144,6.144,0,0,1-.272-2.191c0-.619,0-1.194.031-1.665s0-.761.031-1.033A2.329,2.329,0,0,1,215.538,207.6Z" transform="translate(-131.921 -179.57)" fill="#263238"/><path d="M190.971,207.091v1.43c0,.458,0,1,.031,1.628a6.33,6.33,0,0,0,.309,2.1,5.656,5.656,0,0,0,1.368,2.16,5.5,5.5,0,0,0,2.556,1.4,5.479,5.479,0,0,0,5.873-2.358,5.57,5.57,0,0,0,.873-3.168v-3.2l.149.149-8.045-.074-2.327-.037h-.848a6.185,6.185,0,0,1,.792-.037l2.3-.037,8.132-.074h.149v3.348a5.879,5.879,0,0,1-.916,3.342,5.762,5.762,0,0,1-2.828,2.277,5.4,5.4,0,0,1-1.714.353,5.57,5.57,0,0,1-1.671-.155,5.707,5.707,0,0,1-4.072-3.787,6.145,6.145,0,0,1-.272-2.191c0-.619,0-1.194.037-1.665a9.4,9.4,0,0,0,0-1.033,1.237,1.237,0,0,1,.13-.378Z" transform="translate(-122.522 -179.379)" fill="#263238"/><path d="M213.18,208.307a14.233,14.233,0,0,1-4.27,0A13.726,13.726,0,0,1,213.18,208.307Z" transform="translate(-129.427 -179.821)" fill="#263238"/><path d="M172,208.415a56.005,56.005,0,0,1,5.916-.179,56.593,56.593,0,0,1,5.922.142,52.179,52.179,0,0,1-5.916.179A52.935,52.935,0,0,1,172,208.415Z" transform="translate(-115.358 -179.849)" fill="#263238"/><path d="M274.87,366.7a15.223,15.223,0,0,0,14.481,7.964h0a15.224,15.224,0,0,0,13.992-12.928l3.589-41.085L292.556,317.1l-5.873,32.18S283.614,362.764,274.87,366.7Z" transform="translate(-154.568 -221.352)" fill="#ffbe9d"/><path d="M303.24,305.163l.477-7.21s2.036-16.176,2.036-17.761c0-1.819.873-2.265,1.547-2.215,1.046.068,1.788,1.361,1.857,2.927,0,.538-.049,9.091-.049,9.091a19.692,19.692,0,0,1,1.652-2.308c1.238-1.6,4.233-2.519,7.284-2.42s3.886.4,3.9,1.578a1.516,1.516,0,0,1-.619,1.151,3,3,0,0,1-2.011.693c-4.883-.087-6.188,2.519-6.188,2.519l-.062.947s2.964-2.123,5.328-1.238a2.791,2.791,0,0,1,.941.582,3.818,3.818,0,0,1,3.311,5.693,1.584,1.584,0,0,1-1.535.959,1.981,1.981,0,0,1-.86-.526,3.816,3.816,0,0,0-.439-.322l-.545,2.618s-1.541,5.817-1.925,8.429" transform="translate(-165.382 -206.439)" fill="#ffbe9d"/><path d="M305.38,314.148a2.221,2.221,0,0,0,2.3-1.2c.483-.792.687-1.727,1.108-2.556,1.275-2.475,4.332-3.651,5.5-6.188.161-.353.248-.835-.062-1.071s-.693-.043-1.009.13l-8.045,4.456" transform="translate(-166.117 -215.987)" fill="#ffbe9d"/><path d="M305.16,307.564a4.16,4.16,0,0,1,.823-.569c.545-.34,1.343-.811,2.333-1.386l3.5-2,1.009-.569a1.807,1.807,0,0,1,1.331-.378.761.761,0,0,1,.526.687,1.609,1.609,0,0,1-.13.743,5.957,5.957,0,0,1-.693,1.163,35.379,35.379,0,0,1-3.6,3.416,6.873,6.873,0,0,0-1.275,1.64c-.3.569-.5,1.163-.73,1.7a3.237,3.237,0,0,1-1.857,2.005c-.662.2-1.033,0-1.009-.037a2.477,2.477,0,0,0,.941-.155,3.137,3.137,0,0,0,1.6-1.956,18.153,18.153,0,0,1,.687-1.764,6.923,6.923,0,0,1,1.318-1.776,43.724,43.724,0,0,0,3.515-3.391,5.406,5.406,0,0,0,.619-1.046c.155-.353.13-.706-.068-.743a1.88,1.88,0,0,0-.928.322l-1.027.557-3.546,1.931c-1.015.538-1.857.959-2.413,1.238A3.523,3.523,0,0,1,305.16,307.564Z" transform="translate(-166.113 -215.845)" fill="#eb996e"/><path d="M318.905,297.36a3.714,3.714,0,0,1,.563-1.646,2.921,2.921,0,0,1,1.485-1.077,7.427,7.427,0,0,1,2.321-.371,12.517,12.517,0,0,0,2.413-.21,3.868,3.868,0,0,0,1.795-.9,1.516,1.516,0,0,0,.483-1.238.91.91,0,0,0-.161-.47c-.031,0,0,.18.031.477a1.43,1.43,0,0,1-.52,1.083,3.887,3.887,0,0,1-1.7.767,13.213,13.213,0,0,1-2.358.173,7.353,7.353,0,0,0-2.407.377,3.1,3.1,0,0,0-1.578,1.238,2.717,2.717,0,0,0-.408,1.287A.928.928,0,0,0,318.905,297.36Z" transform="translate(-171.331 -211.575)" fill="#eb996e"/><path d="M312.706,281.73a9.2,9.2,0,0,0,0,1.7c0,1.163,0,2.556.043,4.091s0,2.927,0,4.09a9.772,9.772,0,0,0,.037,1.7,7.172,7.172,0,0,0,.2-1.7c.074-1.046.124-2.475.118-4.1s-.068-3.057-.142-4.1A7.965,7.965,0,0,0,312.706,281.73Z" transform="translate(-168.974 -207.871)" fill="#eb996e"/><path d="M322.057,302.713a1.994,1.994,0,0,0,.5-.192,1.591,1.591,0,0,1,1.312-.062.854.854,0,0,1,.446.712,4.382,4.382,0,0,1-.08,1.1,1.857,1.857,0,0,0,.2,1.337,1.621,1.621,0,0,0,1.3.681,1.856,1.856,0,0,0,1.337-.582,2.24,2.24,0,0,0,.619-1.188,7.5,7.5,0,0,0-.031-2.191,4.27,4.27,0,0,0-.439-1.4c-.173-.309-.334-.427-.347-.415s.1.167.229.47a5.066,5.066,0,0,1,.316,1.386,8.043,8.043,0,0,1-.031,2.1,1.856,1.856,0,0,1-1.658,1.485,1.293,1.293,0,0,1-1.033-.526,1.621,1.621,0,0,1-.167-1.114,4.457,4.457,0,0,0,.049-1.182,1.1,1.1,0,0,0-.619-.885,1.627,1.627,0,0,0-1.473.161C322.193,302.576,322.02,302.669,322.057,302.713Z" transform="translate(-172.552 -215.028)" fill="#eb996e"/><path d="M329.758,305.231a.681.681,0,0,0,.049.483,1.5,1.5,0,0,0,.99.879,1.974,1.974,0,0,0,1.857-.582,3.212,3.212,0,0,0,.835-2.246,3.936,3.936,0,0,0-.73-2.283,3.676,3.676,0,0,0-1.529-1.238,3.467,3.467,0,0,0-1.275-.3c-.309,0-.476,0-.476.05a5.787,5.787,0,0,1,1.652.47,3.67,3.67,0,0,1,1.374,1.182,3.751,3.751,0,0,1,.619,2.1,3,3,0,0,1-.718,2.03,1.739,1.739,0,0,1-1.6.563,1.392,1.392,0,0,1-.922-.7C329.8,305.4,329.8,305.231,329.758,305.231Z" transform="translate(-175.383 -214.811)" fill="#eb996e"/><path d="M317.8,315.546a1.356,1.356,0,0,0-.817,0,3.231,3.231,0,0,0-1.782,1.077l.285.087a9.058,9.058,0,0,0-.186-1.139A7.314,7.314,0,0,0,313.54,312a18.521,18.521,0,0,1,1.436,3.645c.087.384.149.755.192,1.1l.049.384.241-.3a3.373,3.373,0,0,1,1.578-1.083C317.5,315.6,317.8,315.589,317.8,315.546Z" transform="translate(-169.307 -219.408)" fill="#eb996e"/><path d="M320.673,294.216c-.08.037.248.619,1,.972s1.423.148,1.392.062-.619-.08-1.238-.371S320.753,294.154,320.673,294.216Z" transform="translate(-172.022 -212.628)" fill="#eb996e"/><path d="M288.156,329.45l18.064,1.293s-2.779,31.963-3.317,36.92S299.19,380.1,288.156,380.1s-13.089-3.756-18-11.492c5.786-4.01,14.976-15.985,14.976-15.985Z" transform="translate(-152.773 -226.06)" fill="#21b586"/><path d="M309.7,336.4a6.1,6.1,0,0,1-.334.786l-1.009,2.129-3.565,7.358-.179-.217,4.685-1.392,4.759-1.4.347-.1-.167.316-3.713,7.21-1.1,2.073a4.862,4.862,0,0,1-.427.724,6.54,6.54,0,0,1,.334-.774c.26-.532.619-1.238,1.015-2.11l3.6-7.259.18.217-4.753,1.411-4.691,1.374-.34.1.161-.316,3.694-7.284c.452-.86.817-1.566,1.089-2.092A5.114,5.114,0,0,1,309.7,336.4Z" transform="translate(-165.801 -228.709)" fill="#e0e0e0"/><path d="M300.742,386.076a5.339,5.339,0,0,1-.842.111l-2.352.2-8.132.619.1-.266,3.565,3.342,3.608,3.4.26.248h-.359l-8.088.446-2.339.1a4.875,4.875,0,0,1-.842,0,5.418,5.418,0,0,1,.835-.1l2.333-.192,8.082-.557-.093.266-3.62-3.4-3.552-3.354-.26-.241h.353l8.138-.489,2.358-.118A5.563,5.563,0,0,1,300.742,386.076Z" transform="translate(-158.551 -247.641)" fill="#e0e0e0"/></g><g transform="translate(194.729 161.563)"><path d="M336.95,197.5l-18.423-6.615-18.219,6.529c-2.327,1.1-4.369,1.757-4.369,3.923v10.8a40.844,40.844,0,0,0,5.984,21.517,37.446,37.446,0,0,0,16.783,14.821c7.426-2.42,13-8.88,16.43-14.4a40.843,40.843,0,0,0,6.015-21.517v-9.716C341.152,199.748,339.506,198.238,336.95,197.5Z" transform="translate(-295.939 -190.855)" fill="#21b586"/><g transform="translate(0 0.05)" opacity="0.3"><path d="M318.707,242.2a29.7,29.7,0,0,1-13.274-11.82,32.316,32.316,0,0,1-4.759-17.012v-7.55a4.785,4.785,0,0,1,3.094-4.289l14.766-5.52V190.92l-18.225,6.5c-1.912.835-4.369,1.758-4.369,3.923v10.8a40.844,40.844,0,0,0,5.984,21.517,37.446,37.446,0,0,0,16.783,14.821Z" transform="translate(-295.939 -190.92)"/></g><g transform="translate(22.582 0)" opacity="0.4"><path d="M332.616,248.442a22.357,22.357,0,0,0,3.62-1.547,32.625,32.625,0,0,0,7.686-6.028,41.205,41.205,0,0,0,5.328-7.16,39.3,39.3,0,0,0,5.811-21.727v-8.918c0-4.443-2.29-4.771-4.208-5.607L332.43,190.84v5.093l14.939,5.613a4.784,4.784,0,0,1,3.094,4.282v7.581a32.292,32.292,0,0,1-4.759,17.006,29.086,29.086,0,0,1-13.1,11.758Z" transform="translate(-332.43 -190.84)"/></g><path d="M333.045,222.574v-1.46a4.784,4.784,0,1,0-9.567,0V222.6a2.673,2.673,0,0,0-2.277,2.642v8.6a2.673,2.673,0,0,0,2.673,2.673h8.961a2.673,2.673,0,0,0,2.673-2.673v-8.6A2.673,2.673,0,0,0,333.045,222.574Zm-3.484,9.122h-2.339l.365-1.689a1.417,1.417,0,1,1,1.547,0C329.294,230.638,329.561,231.7,329.561,231.7Zm2.475-9.134h-7.525v-1.448a3.756,3.756,0,0,1,7.507,0Z" transform="translate(-305.567 -200.556)" fill="#fff" opacity="0.5"/><path d="M308.149,220.259a5.57,5.57,0,0,1-.278-1.5,25.481,25.481,0,0,1-.148-3.67,19.994,19.994,0,0,1,.13-2.017,4.333,4.333,0,0,1,.415-1.628,1.82,1.82,0,0,1,.8-.811c.254-.118.408-.111.408-.093a2.061,2.061,0,0,0-1.009,1,4.529,4.529,0,0,0-.322,1.553c-.049.619-.087,1.293-.105,2.005-.043,1.417,0,2.7.056,3.639A9.692,9.692,0,0,1,308.149,220.259Z" transform="translate(-300.425 -198.346)" fill="#fff"/><path d="M308.739,232.616c-.087,0-.167-.439-.179-.99s.056-1,.142-1,.167.439.179.99S308.831,232.616,308.739,232.616Z" transform="translate(-300.749 -206.006)" fill="#fff"/></g></g></svg>