<svg xmlns="http://www.w3.org/2000/svg" width="251.326" height="195.437" viewBox="0 0 251.326 195.437"><g transform="translate(-32.032 -107.289)"><g transform="translate(46.725 288.911)"><ellipse cx="118.317" cy="6.908" rx="118.317" ry="6.908" transform="translate(0 0)" fill="#f5f5f5"/></g><g transform="translate(32.032 107.289)"><circle cx="33.05" cy="33.05" r="33.05" transform="translate(0 73.679) rotate(-45)" fill="#21b586"/><circle cx="33.05" cy="33.05" r="33.05" transform="translate(0 73.679) rotate(-45)" opacity="0.4"/><circle cx="27.753" cy="27.753" r="27.753" transform="translate(14.717 96.37) rotate(-80.32)" opacity="0.2"/><circle cx="26.708" cy="26.708" r="26.708" transform="translate(20.276 99.249) rotate(-85.996)" fill="#21b586"/><circle cx="26.708" cy="26.708" r="26.708" transform="translate(20.276 99.249) rotate(-85.996)" opacity="0.4"/><path d="M111.434,214.478l1.739,7.536a2.142,2.142,0,0,1-.281,1.7,2.239,2.239,0,0,1-1.422,1.007l-6.627,1.532,1.22,5.3a2.118,2.118,0,0,1-.293,1.69,2.142,2.142,0,0,1-1.422.964,2.245,2.245,0,0,1-1.727-.269,2.124,2.124,0,0,1-1-1.391l-1.22-5.364-6.572,1.519a2.16,2.16,0,0,1-1.672-.281,2.136,2.136,0,0,1-1.007-1.391,2.172,2.172,0,0,1,.281-1.684,2.136,2.136,0,0,1,1.391-.995l15.378-3.545-.72-3.13-15.335,3.533a2.166,2.166,0,0,1-1.684-.262,2.136,2.136,0,0,1-.995-1.41l-1.733-7.506a2.233,2.233,0,0,1,1.672-2.679l6.542-1.507-1.22-5.309a2.166,2.166,0,0,1,.256-1.666,2.191,2.191,0,0,1,1.489-1.025,2.142,2.142,0,0,1,1.666.281,2.178,2.178,0,0,1,.989,1.4l1.22,5.3,6.712-1.538a2.215,2.215,0,0,1,1.715.287,2.124,2.124,0,0,1,1.013,1.373,2.313,2.313,0,0,1-1.715,2.74L92.694,213.24l.671,3.112,15.323-3.533a2.215,2.215,0,0,1,1.715.287,2.105,2.105,0,0,1,1.031,1.373Z" transform="translate(-53.72 -143.344)" fill="#21b586"/><g transform="translate(33.955 56.447)" opacity="0.7"><path d="M111.434,214.478l1.739,7.536a2.142,2.142,0,0,1-.281,1.7,2.239,2.239,0,0,1-1.422,1.007l-6.627,1.532,1.22,5.3a2.118,2.118,0,0,1-.293,1.69,2.142,2.142,0,0,1-1.422.964,2.245,2.245,0,0,1-1.727-.269,2.124,2.124,0,0,1-1-1.391l-1.22-5.364-6.572,1.519a2.16,2.16,0,0,1-1.672-.281,2.136,2.136,0,0,1-1.007-1.391,2.172,2.172,0,0,1,.281-1.684,2.136,2.136,0,0,1,1.391-.995l15.378-3.545-.72-3.13-15.335,3.533a2.166,2.166,0,0,1-1.684-.262,2.136,2.136,0,0,1-.995-1.41l-1.733-7.506a2.233,2.233,0,0,1,1.672-2.679l6.542-1.507-1.22-5.309a2.166,2.166,0,0,1,.256-1.666,2.191,2.191,0,0,1,1.489-1.025,2.142,2.142,0,0,1,1.666.281,2.178,2.178,0,0,1,.989,1.4l1.22,5.3,6.712-1.538a2.215,2.215,0,0,1,1.715.287,2.124,2.124,0,0,1,1.013,1.373,2.313,2.313,0,0,1-1.715,2.74L92.694,213.24l.671,3.112,15.323-3.533a2.215,2.215,0,0,1,1.715.287,2.105,2.105,0,0,1,1.031,1.373Z" transform="translate(-87.675 -199.791)" fill="#fff"/></g><circle cx="23.067" cy="23.067" r="23.067" transform="matrix(0.645, -0.764, 0.764, 0.645, 67.141, 35.236)" fill="#21b586"/><circle cx="23.067" cy="23.067" r="23.067" transform="matrix(0.645, -0.764, 0.764, 0.645, 67.141, 35.236)" opacity="0.4"/><circle cx="19.369" cy="19.369" r="19.369" transform="translate(72.381 35.077) rotate(-50.42)" opacity="0.2"/><circle cx="18.594" cy="18.594" r="18.594" transform="translate(74.325 37.225) rotate(-52.61)" fill="#21b586"/><circle cx="18.594" cy="18.594" r="18.594" transform="translate(74.325 37.225) rotate(-52.61)" opacity="0.4"/><path d="M197.194,154.786l-1.312,5.236a1.471,1.471,0,0,1-.72.946,1.574,1.574,0,0,1-1.22.177l-4.571-1.153-.928,3.661a1.477,1.477,0,0,1-.72.952,1.5,1.5,0,0,1-1.172.177,1.568,1.568,0,0,1-.982-.714,1.5,1.5,0,0,1-.183-1.184l.934-3.722-4.577-1.117a1.507,1.507,0,0,1-.952-.708,1.483,1.483,0,0,1-.183-1.178,1.5,1.5,0,0,1,.708-.964,1.519,1.519,0,0,1,1.184-.171l10.679,2.679.549-2.172-10.648-2.673a1.483,1.483,0,0,1-.958-.7,1.458,1.458,0,0,1-.171-1.184l1.306-5.217a1.55,1.55,0,0,1,1.892-1.129l4.528,1.135.928-3.661a1.532,1.532,0,0,1,1.941-1.141,1.458,1.458,0,0,1,.94.7,1.507,1.507,0,0,1,.177,1.178l-.928,3.661,4.638,1.166a1.544,1.544,0,0,1,.976.726,1.489,1.489,0,0,1,.2,1.172,1.574,1.574,0,0,1-.732.976,1.556,1.556,0,0,1-1.22.183l-10.685-2.679-.537,2.16,10.642,2.667a1.544,1.544,0,0,1,.976.726A1.458,1.458,0,0,1,197.194,154.786Z" transform="translate(-89.924 -120.387)" fill="#21b586"/><g transform="translate(90.635 20.506)" opacity="0.7"><path d="M197.194,154.786l-1.312,5.236a1.471,1.471,0,0,1-.72.946,1.574,1.574,0,0,1-1.22.177l-4.571-1.153-.928,3.661a1.477,1.477,0,0,1-.72.952,1.5,1.5,0,0,1-1.172.177,1.568,1.568,0,0,1-.982-.714,1.5,1.5,0,0,1-.183-1.184l.934-3.722-4.577-1.117a1.507,1.507,0,0,1-.952-.708,1.483,1.483,0,0,1-.183-1.178,1.5,1.5,0,0,1,.708-.964,1.519,1.519,0,0,1,1.184-.171l10.679,2.679.549-2.172-10.648-2.673a1.483,1.483,0,0,1-.958-.7,1.458,1.458,0,0,1-.171-1.184l1.306-5.217a1.55,1.55,0,0,1,1.892-1.129l4.528,1.135.928-3.661a1.532,1.532,0,0,1,1.941-1.141,1.458,1.458,0,0,1,.94.7,1.507,1.507,0,0,1,.177,1.178l-.928,3.661,4.638,1.166a1.544,1.544,0,0,1,.976.726,1.489,1.489,0,0,1,.2,1.172,1.574,1.574,0,0,1-.732.976,1.556,1.556,0,0,1-1.22.183l-10.685-2.679-.537,2.16,10.642,2.667a1.544,1.544,0,0,1,.976.726A1.458,1.458,0,0,1,197.194,154.786Z" transform="translate(-180.559 -140.892)" fill="#fff"/></g></g><g transform="translate(74.887 183.659)"><rect width="0.61" height="6.889" transform="translate(0 95.519)" fill="#21b586"/><rect width="0.61" height="6.889" transform="translate(0 95.519)" opacity="0.1"/><rect width="0.61" height="9.44" transform="translate(179.699 40.94)" fill="#21b586"/><rect width="0.61" height="5.12" transform="translate(179.699 55.329)" fill="#21b586"/><rect width="0.61" height="9.44" transform="translate(179.699 40.94)" opacity="0.1"/><rect width="0.61" height="5.12" transform="translate(179.699 55.329)" opacity="0.1"/><rect width="176.044" height="110.664" rx="15.05" transform="translate(2.136)" fill="#21b586"/><rect width="176.044" height="110.664" rx="15.05" transform="translate(2.136)" opacity="0.2"/><circle cx="11.393" cy="11.393" r="11.393" transform="translate(138.289 15.75)" opacity="0.2"/><circle cx="11.393" cy="11.393" r="11.393" transform="translate(123.583 15.75)" fill="#21b586"/><rect width="35.045" height="25.648" rx="6.48" transform="translate(19.24 38.536)" fill="#21b586"/><rect width="35.045" height="25.648" rx="6.48" transform="translate(19.24 38.536)" fill="#fff" opacity="0.3"/><rect width="52.669" height="5.596" rx="2.798" transform="translate(19.24 12.955)" fill="#21b586"/><rect width="52.669" height="5.596" rx="2.798" transform="translate(19.24 12.955)" fill="#fff" opacity="0.3"/><rect width="29.382" height="12.052" rx="6.026" transform="translate(19.24 76.913)" fill="#21b586"/><rect width="29.382" height="12.052" rx="6.026" transform="translate(19.24 76.913)" fill="#fff" opacity="0.3"/><rect width="29.382" height="12.052" rx="6.026" transform="translate(56.72 76.913)" fill="#21b586"/><rect width="29.382" height="12.052" rx="6.026" transform="translate(56.72 76.913)" fill="#fff" opacity="0.3"/><rect width="29.382" height="12.052" rx="6.026" transform="translate(94.207 76.913)" fill="#21b586"/><rect width="29.382" height="12.052" rx="6.026" transform="translate(94.207 76.913)" fill="#fff" opacity="0.3"/><rect width="29.382" height="12.052" rx="6.026" transform="translate(131.687 76.913)" fill="#21b586"/><rect width="29.382" height="12.052" rx="6.026" transform="translate(131.687 76.913)" fill="#fff" opacity="0.3"/></g><g transform="translate(149.81 109.181)"><path d="M272.12,165.331c-1.446,4.082-3.051,8.031-4.754,11.979a102.924,102.924,0,0,1-5.919,11.68q-.448.723-.934,1.446l-.238.36-.323.445c-.22.281-.427.525-.61.763a31.852,31.852,0,0,1-2.441,2.441c-1.629,1.507-3.289,2.874-4.967,4.223-3.368,2.673-6.81,5.175-10.374,7.548l-2.13-2.642,8.97-8.842c1.483-1.471,2.953-2.953,4.327-4.436.677-.738,1.336-1.5,1.879-2.191.134-.171.25-.342.354-.488l.128-.207.177-.317c.238-.421.488-.83.72-1.263,1.867-3.509,3.515-7.323,5.1-11.192s3.112-7.768,4.577-11.637Z" transform="translate(-230.649 -130.896)" fill="#e4897b"/><path d="M286.529,159.946c1.385,4.052-6.755,15.97-6.755,15.97L272,171.589a90.924,90.924,0,0,1,4.687-10.862C279.408,155.576,285.01,155.5,286.529,159.946Z" transform="translate(-243.344 -128.452)" fill="#21b586"/><path d="M286.529,159.946c1.385,4.052-6.755,15.97-6.755,15.97L272,171.589a90.924,90.924,0,0,1,4.687-10.862C279.408,155.576,285.01,155.5,286.529,159.946Z" transform="translate(-243.344 -128.452)" fill="#fff" opacity="0.7"/><path d="M289.623,162.625c-1.745-.836-3.753-.134-5.87,3.21a36.244,36.244,0,0,0-4.113,10.52l3.118,1.727S290.27,167.073,289.623,162.625Z" transform="translate(-246.322 -130.624)" fill="#21b586" opacity="0.31"/><path d="M285.175,156.023s-5.809,13.663-1.623,39.1h24.2c.3-3.716-1.41-21.834,2.783-39.335a61.778,61.778,0,0,0-8.067-1.025,90.26,90.26,0,0,0-10.282,0A46.648,46.648,0,0,0,285.175,156.023Z" transform="translate(-247.255 -127.63)" fill="#21b586"/><path d="M285.175,156.023s-5.809,13.663-1.623,39.1h24.2c.3-3.716-1.41-21.834,2.783-39.335a61.778,61.778,0,0,0-8.067-1.025,90.26,90.26,0,0,0-10.282,0A46.648,46.648,0,0,0,285.175,156.023Z" transform="translate(-247.255 -127.63)" fill="#fff" opacity="0.7"/><path d="M331.56,394.089l-3.582,3.21-6.828-7.109,3.588-3.21Z" transform="translate(-262.501 -218.198)" fill="#e4897b"/><path d="M314.818,402.881H310.3l-.586-10.471h4.522Z" transform="translate(-258.042 -220.314)" fill="#e4897b"/><path d="M321.16,390.19l3.515,3.667,3.588-3.216-3.515-3.661Z" transform="translate(-262.505 -218.198)" fill="#ce6f64"/><path d="M314.232,392.41H309.71l.305,5.4h4.522Z" transform="translate(-258.042 -220.314)" fill="#ce6f64"/><path d="M280.414,220.988s-4.766,32.989-6.389,50.942c-1.306,14.407,29.846,57.361,29.846,57.361l6.023-5.669s-22.749-38.511-21-54.548c1.7-15.53,7.445-48.1,7.445-48.1Z" transform="translate(-244.117 -153.491)" fill="#21b586"/><path d="M280.414,220.988s-4.766,32.989-6.389,50.942c-1.306,14.407,29.846,57.361,29.846,57.361l6.023-5.669s-22.749-38.511-21-54.548c1.7-15.53,7.445-48.1,7.445-48.1Z" transform="translate(-244.117 -153.491)" opacity="0.7"/><path d="M296.795,276.833c.873-8,2.825-20.534,4.5-30.8-.879-1.721-3.344-5.205-3.344-5.205-2.209,7.634-7.011,36.412-.159,75.277,7.14,11.509,13.974,20.943,13.974,20.943l.934-14.841C306.107,309.8,295.58,287.921,296.795,276.833Z" transform="translate(-252.016 -161.232)" opacity="0.2"/><path d="M298.541,221s-.427,34.569.305,47.524c.8,14.182,4.827,61.175,4.827,61.175h8.287s-.25-45.846.238-59.881c.543-15.256,1.947-48.818,1.947-48.818Z" transform="translate(-253.641 -153.503)" fill="#21b586"/><path d="M298.541,221s-.427,34.569.305,47.524c.8,14.182,4.827,61.175,4.827,61.175h8.287s-.25-45.846.238-59.881c.543-15.256,1.947-48.818,1.947-48.818Z" transform="translate(-253.641 -153.503)" opacity="0.7"/><path d="M303.474,408.72h5.083a.323.323,0,0,1,.336.305l.25,4.021a.8.8,0,0,1-.793.805c-1.77-.031-2.618-.134-4.851-.134-1.373,0-7.219.146-9.117.146s-1.831-1.88-1.043-2.05c3.606-.763,8.079-1.831,9.361-2.819a1.275,1.275,0,0,1,.775-.275Z" transform="translate(-251.458 -226.671)" fill="#263238"/><path d="M325.617,399.849l4.357-2.935a.4.4,0,0,1,.5,0l3.332,3.362a.671.671,0,0,1-.159,1.019,46.026,46.026,0,0,0-6.377,5.541c-1.831,2.081-2.819,2.38-7.091,2.38-1.977,0-3.094-1.666-2.288-1.922,7.115-2.252,5.211-3.234,6.944-6.535a2.441,2.441,0,0,1,.781-.909Z" transform="translate(-261.128 -222.036)" fill="#263238"/><path d="M238.1,228.56l-4.717.165.989,3.7s4.931.439,5.37-1.05Z" transform="translate(-228.291 -156.45)" fill="#e4897b"/><path d="M225.04,231.033l3.307,1.928,2.77-.433-.989-3.7Z" transform="translate(-225.04 -156.555)" fill="#e4897b"/><path d="M319.771,161.916c-.5,2.88.165,9.764,2.636,17.733a116.354,116.354,0,0,1,2.374-20.314V159.3C323.194,159.14,320.253,159.213,319.771,161.916Z" transform="translate(-261.903 -129.434)" fill="#21b586" opacity="0.31"/><path d="M307.712,135.88c-.763,3.307-1.623,9.373.61,11.594,0,0-.964,2.74-7.115,2.74-6.761,0-3.167-2.74-3.167-2.74,3.722-.879,3.722-3.619,3.167-6.188Z" transform="translate(-253.122 -120.325)" fill="#e4897b"/><path d="M302.391,159.35,300.56,161.3l.9,1.879,1.458.067,1.245-1.794Z" transform="translate(-254.476 -129.473)" fill="#21b586"/><path d="M307.7,139.49l-3.851,3.185a10.584,10.584,0,0,1,.256,1.831c1.416-.2,3.405-1.751,3.606-3.228A4.81,4.81,0,0,0,307.7,139.49Z" transform="translate(-255.758 -121.732)" fill="#ce6f64"/><path d="M299.561,117.415c-2.313.787-4.162,6.92-1.465,8.543S303.955,115.92,299.561,117.415Z" transform="translate(-252.995 -113.076)" fill="#263238"/><path d="M308.079,125.193c-1.379,4.272-1.965,6.853-4.748,8.6a5.852,5.852,0,0,1-9.013-5.114c.055-4.107,2.3-10.429,7.03-11.222a5.925,5.925,0,0,1,6.731,7.732Z" transform="translate(-252.042 -113.104)" fill="#e4897b"/><path d="M309.654,115.339c-1.379,3.332,1.831.549,1,4.5-.537,2.575-5.187,8.745-6.981,8.183s-1.776-4.937.513-8.031c1.318-1.776-1.532-3.789-7.933-3.576s-10.27-3.387-1.764-6.029c0,0-3.137,1.831-1.275,2.441C295.851,113.813,312.418,108.663,309.654,115.339Z" transform="translate(-250.2 -110.39)" fill="#263238"/><path d="M320.469,119.051c-.067,0,1.434-.372,2.233-3.051C322.7,116.043,322.44,119.991,320.469,119.051Z" transform="translate(-262.235 -112.577)" fill="#263238"/><path d="M299.281,111.36c-3.936,1.22-2.307,2.593-.677,2.935l3.735-1.465C296.663,113.581,299.281,111.36,299.281,111.36Z" transform="translate(-253.026 -110.768)" fill="#263238"/><path d="M315.234,136.647a4.467,4.467,0,0,1-3.051,1.263c-1.507,0-1.831-1.428-1.019-2.624.72-1.074,2.368-2.368,3.7-1.788A1.861,1.861,0,0,1,315.234,136.647Z" transform="translate(-258.44 -119.341)" fill="#e4897b"/><path d="M304.9,129.335c-.092.354-.354.61-.61.549s-.348-.384-.256-.738.354-.61.61-.543S305,128.981,304.9,129.335Z" transform="translate(-255.818 -117.485)" fill="#263238"/><path d="M298.3,127.887c-.092.354-.354.61-.61.549s-.348-.378-.256-.732.348-.61.61-.549S298.378,127.533,298.3,127.887Z" transform="translate(-253.245 -116.921)" fill="#263238"/><path d="M299.341,129.11a13.774,13.774,0,0,1-2.441,2.654,2.087,2.087,0,0,0,1.623.69Z" transform="translate(-253.049 -117.687)" fill="#de5753"/><path d="M301.468,136.1a3.375,3.375,0,0,1-.751-.085.107.107,0,1,1,.049-.207,3.051,3.051,0,0,0,2.587-.61.108.108,0,0,1,.153.153A3.1,3.1,0,0,1,301.468,136.1Z" transform="translate(-254.506 -120.048)" fill="#263238"/><path d="M307.116,127.157a.207.207,0,0,1-.2-.128,1.648,1.648,0,0,0-1.159-.982.214.214,0,0,1-.183-.244.22.22,0,0,1,.244-.183,2.062,2.062,0,0,1,1.489,1.22.207.207,0,0,1-.11.281A.213.213,0,0,1,307.116,127.157Z" transform="translate(-256.431 -116.325)" fill="#263238"/><path d="M296.514,124.73a.213.213,0,0,1-.134-.049.22.22,0,0,1-.03-.305,2.239,2.239,0,0,1,1.794-.836.214.214,0,0,1,.2.232.207.207,0,0,1-.232.2,1.794,1.794,0,0,0-1.428.683A.207.207,0,0,1,296.514,124.73Z" transform="translate(-252.816 -115.515)" fill="#263238"/><path d="M326.955,161.65c.476.738.873,1.391,1.275,2.1s.787,1.391,1.166,2.1c.744,1.41,1.446,2.85,2.087,4.32a44.975,44.975,0,0,1,3.008,9.391l.061.311.031.153.043.256a7,7,0,0,1,.079,1.031,9.076,9.076,0,0,1-.183,1.721,14.528,14.528,0,0,1-.891,2.722,29.105,29.105,0,0,1-2.441,4.4,51.257,51.257,0,0,1-6.029,7.4l-2.654-2.13c1.477-2.575,2.947-5.248,4.18-7.866a29.907,29.907,0,0,0,1.55-3.869,8.707,8.707,0,0,0,.354-1.7,2.542,2.542,0,0,0,0-.568c0-.055,0-.1-.037-.11s0,0,0-.031l-.037-.122-.073-.25a38.735,38.735,0,0,0-1.373-3.966c-.537-1.324-1.135-2.642-1.764-3.954s-1.306-2.606-2-3.9c-.342-.647-.7-1.288-1.062-1.922l-1.074-1.831Z" transform="translate(-262.509 -130.37)" fill="#e4897b"/><path d="M307.014,409.268a1.22,1.22,0,0,1-.854-.238.61.61,0,0,1-.134-.574.409.409,0,0,1,.25-.3c.555-.22,1.831.659,1.977.757a.1.1,0,0,1,.043.11.1.1,0,0,1-.079.085,5.8,5.8,0,0,1-1.2.159Zm-.531-.934a.4.4,0,0,0-.128,0,.177.177,0,0,0-.116.146.384.384,0,0,0,.073.378c.207.207.8.232,1.611.073a3.624,3.624,0,0,0-1.44-.592Z" transform="translate(-256.597 -226.439)" fill="#fff"/><path d="M308.9,408.449h-.055c-.452-.268-1.123-1.22-1.019-1.709a.4.4,0,0,1,.384-.323.543.543,0,0,1,.445.146c.458.446.354,1.745.354,1.8a.11.11,0,0,1-.061.085Zm-.61-1.831h-.049a.179.179,0,0,0-.2.153c-.067.323.378,1.037.769,1.367a2.35,2.35,0,0,0-.293-1.428.323.323,0,0,0-.232-.092Z" transform="translate(-257.303 -225.772)" fill="#fff"/><path d="M325.494,405.1a.793.793,0,0,1-.33-.061.537.537,0,0,1-.323-.378.311.311,0,0,1,.067-.3c.409-.494,2.551-.348,2.795-.33a.1.1,0,0,1,.1.079.11.11,0,0,1-.049.116A5.7,5.7,0,0,1,325.494,405.1Zm1.294-.891a3.191,3.191,0,0,0-1.715.287.1.1,0,0,0,0,.11.324.324,0,0,0,.2.238,3.284,3.284,0,0,0,2.081-.61Z" transform="translate(-263.935 -224.829)" fill="#fff"/><path d="M328.2,403.453h0c-.61,0-1.983-.47-2.087-.958a.415.415,0,0,1,.293-.433c1.05-.494,1.861,1.166,1.9,1.22a.14.14,0,0,1,0,.11.116.116,0,0,1-.1.061Zm-1.41-1.263a.666.666,0,0,0-.3.067c-.128.061-.189.128-.177.189.061.287,1.05.69,1.7.775C327.813,402.891,327.343,402.189,326.787,402.189Z" transform="translate(-264.434 -224.04)" fill="#fff"/><path d="M322.479,214.877,318,214.09l2.313,5.217s4.107,0,3.924-2.148Z" transform="translate(-261.273 -150.81)" fill="#e4897b"/><path d="M312.45,216.714l2.117,4.211,3.558-1.617-2.313-5.217Z" transform="translate(-259.11 -150.81)" fill="#e4897b"/><path d="M327.724,386.731l-6.755,6.359-2.178-2.337,7.732-7.042Z" transform="translate(-261.581 -216.923)" fill="#21b586"/><path d="M327.724,386.731l-6.755,6.359-2.178-2.337,7.732-7.042Z" transform="translate(-261.581 -216.923)" fill="#fff" opacity="0.6"/><path d="M315.116,397.119h-8.952l-.494-3.149,9.88.494Z" transform="translate(-256.468 -220.922)" fill="#21b586"/><path d="M315.116,397.119h-8.952l-.494-3.149,9.88.494Z" transform="translate(-256.468 -220.922)" fill="#fff" opacity="0.6"/><path d="M324.56,156.487c4.272.61,8.647,15.451,8.647,15.451l-9.153,5.077a106.4,106.4,0,0,1-5.492-12.29C316.7,159.239,319.989,155.815,324.56,156.487Z" transform="translate(-261.286 -128.325)" fill="#21b586"/><path d="M324.56,156.487c4.272.61,8.647,15.451,8.647,15.451l-9.153,5.077a106.4,106.4,0,0,1-5.492-12.29C316.7,159.239,319.989,155.815,324.56,156.487Z" transform="translate(-261.286 -128.325)" fill="#fff" opacity="0.7"/><path d="M302.391,159.35,300.56,161.3l.9,1.879,1.458.067,1.245-1.794Z" transform="translate(-254.476 -129.473)" opacity="0.2"/><path d="M299.977,165.07s-3.472,14.383-3.606,17.373c-.189,4.113,1.532,11.137,1.532,11.137a45.074,45.074,0,0,0,2.941-11.265c.5-5.425.128-14.2.354-17.245Z" transform="translate(-252.837 -131.703)" fill="#21b586"/><path d="M299.977,165.07s-3.472,14.383-3.606,17.373c-.189,4.113,1.532,11.137,1.532,11.137a45.074,45.074,0,0,0,2.941-11.265c.5-5.425.128-14.2.354-17.245Z" transform="translate(-252.837 -131.703)" opacity="0.2"/><path d="M303.56,156.762a7.933,7.933,0,0,1,1.172,3.728s7.616-2.685,7.256-6.621c0,0-1.08-.641-1.764-1.159C310.224,152.71,309.967,155.188,303.56,156.762Z" transform="translate(-255.645 -126.885)" fill="#21b586"/><path d="M303.56,156.762a7.933,7.933,0,0,1,1.172,3.728s7.616-2.685,7.256-6.621c0,0-1.08-.641-1.764-1.159C310.224,152.71,309.967,155.188,303.56,156.762Z" transform="translate(-255.645 -126.885)" fill="#fff" opacity="0.6"/><path d="M300.945,157.218a10.715,10.715,0,0,0-1.489,3.49s-3.448-2.331-2.41-6.218a12.868,12.868,0,0,1,1.947-.61A2.985,2.985,0,0,0,300.945,157.218Z" transform="translate(-253.03 -127.341)" fill="#21b586"/><path d="M300.945,157.218a10.715,10.715,0,0,0-1.489,3.49s-3.448-2.331-2.41-6.218a12.868,12.868,0,0,1,1.947-.61A2.985,2.985,0,0,0,300.945,157.218Z" transform="translate(-253.03 -127.341)" fill="#fff" opacity="0.6"/></g></g></svg>